<svg xmlns="http://www.w3.org/2000/svg" viewBox="0 0 399.67 82.71"><defs><style>.cls-1{fill:#fff;}</style></defs><g id="Layer_2" data-name="Layer 2"><g id="Layer_1-2" data-name="Layer 1"><rect class="cls-1" x="257.7" y="30.64" width="46.21" height="21.09"/><path class="cls-1" d="M0,1.32H29.27c20.91,0,30.26,7.47,30.26,23.06,0,7.14-2.64,12.2-6.93,15.49,5.72,3.41,8.8,8.79,8.8,16.7,0,17.57-12,24.93-32.68,24.93H0ZM22,21v9.88h8.91c4.18,0,6-2.19,6-5.16S35,21,30.7,21Zm0,30.1V61.73h7.48c6.05,0,8.14-2,8.14-5.71s-2-4.94-7.59-4.94Z"/><path class="cls-1" d="M102.69,1.32h21.57L150.78,81.5h-23l-3-9.56H101.92L99,81.5H76.07Zm10.79,33.83L108.2,51.73h10.34Z"/><path class="cls-1" d="M165.79,68l19.47-15.38c3.63,5.82,8.7,8.9,13.43,8.9,4,0,7-2.42,7-4.83,0-3.41-6-4.4-13.09-6.37-10.46-2.86-23.33-7.58-23.33-24.17C169.31,11.09,181,0,198.47,0c15.29,0,24.43,6.81,30.15,13.84L210.46,27.9c-2.64-4.72-7.26-8.13-11.88-8.13-3.74,0-6.27,2.09-6.27,4.51,0,3.51,6.05,4.72,13.31,6.8,10.68,3.08,24,7.91,24,24.39,0,14.61-11.22,27.24-31,27.24C181.08,82.71,172.5,75.46,165.79,68Z"/><path class="cls-1" d="M250,21V1.32h61.61V22.41H279.87m0,38.11h31.74v21H250V61.73"/><path class="cls-1" d="M332.33,1.32h26.19c22.89,0,41.15,17.35,41.15,40.09S381.74,81.5,358.52,81.5H332.33Zm22.89,21.53V60h3.3c10.78,0,17.72-8.46,17.72-18.56S369,22.85,358.52,22.85Z"/><rect class="cls-1" x="250" y="60.47" width="61.61" height="21.09"/><rect class="cls-1" x="250" y="1.32" width="61.61" height="21.09"/></g></g></svg>