<?xml version="1.0" encoding="utf-8"?>
<!-- Generator: Adobe Illustrator 25.4.1, SVG Export Plug-In . SVG Version: 6.00 Build 0)  -->
<svg version="1.1" id="Layer_1" xmlns="http://www.w3.org/2000/svg" xmlns:xlink="http://www.w3.org/1999/xlink" x="0px" y="0px"
	 viewBox="0 0 1600 1600" style="enable-background:new 0 0 1600 1600;" xml:space="preserve">
<style type="text/css">
	.st0{fill:#231F20;}
	.st1{fill:#FBFCFD;}
</style>
<rect class="st0" width="1600" height="1600"/>
<g>
	<path class="st1" d="M241.1,767.4c-73.6,0-104.5-54.6-104.5-125c0-75.6,36.2-122.7,106.4-122.7c47.7,0,77.8,19.2,92.8,62.7
		l18.4-7.3c-19.6-49.5-55.8-74-111-74c-82.7,0-126,56.8-126,142.1c0,84.9,43.1,143,123.9,143c54,0,91.8-25.7,113.6-74.8l-18.2-7.3
		C318.1,747.1,287.6,767.4,241.1,767.4z"/>
	<path class="st1" d="M691.7,655.1h47.1c6.9,0,13.7-0.4,19.6-0.8l74.4,129.2h22l-77.4-131.4c37.8-8.1,60.7-33,60.7-71.6
		c0-49.1-37.4-76.6-91.8-76.6h-74.2v279.6h19.6V655.1z M691.7,521.5h54.8c45.1,0,72.2,21.6,72.2,59.2c0,37.4-25.5,57.6-70.8,58
		h-56.2V521.5z"/>
	<polygon class="st1" points="891.5,521.5 992.6,521.5 992.6,783.5 1012,783.5 1012,521.5 1112.7,521.5 1112.7,503.9 891.5,503.9 	
		"/>
	<polygon class="st1" points="1362.8,503.9 1269.2,658 1176,503.9 1152.5,503.9 1259.3,677.4 1259.3,783.5 1279.5,783.5 
		1279.5,677.4 1386.6,503.9 	"/>
	<path class="st1" d="M145.2,882.8c0-29.5,23.9-51,56.2-51c28.1,0,47.7,11.5,61.7,36.2l16.2-10.1c-17.4-30.3-43.1-43.7-77.4-43.7
		c-42.7,0-76.2,27.9-76.2,69.4c0,86.1,146.4,60.7,146.4,139.1c0,33.6-27.3,58.8-67.9,58.8c-40,0-69.2-22.2-75.2-62.1l-19.4,4.5
		c8.1,47.9,46.5,75,94.2,75c49.9,0,87.6-31.5,87.6-77.6C291.6,929.3,145.2,953.8,145.2,882.8z"/>
	<polygon class="st1" points="364,1096.5 545.6,1096.5 545.6,1077.9 383.6,1077.9 383.6,964.9 528,964.9 528,946.9 383.6,946.9 
		383.6,834.9 545.6,834.9 545.6,816.9 364,816.9 	"/>
	<path class="st1" d="M852.1,1069.4l-59.8-237.8h-16.4l-66.5,237.8L606.2,783.5h0.2L505.3,503.9h-17.8L386.2,783.5h21.6l24.5-69.6
		h128.6l133.8,382.7h23.9l65.7-234.4l59,234.4h20.6l79.5-279.6h-20.4L852.1,1069.4z M438.4,696.8L496.6,530l58.2,166.8H438.4z"/>
	<rect x="1010.8" y="816.9" class="st1" width="19.6" height="279.6"/>
	<polygon class="st1" points="1145.4,816.9 1125.8,816.9 1125.8,1096.5 1276,1096.5 1276,1077.9 1145.4,1077.9 	"/>
	<polygon class="st1" points="1359.7,1077.9 1359.7,816.9 1340.1,816.9 1340.1,1096.5 1490.3,1096.5 1490.3,1077.9 	"/>
</g>
</svg>
