<?xml version="1.0" encoding="utf-8"?>
<!-- Generator: Adobe Illustrator 25.4.1, SVG Export Plug-In . SVG Version: 6.00 Build 0)  -->
<svg version="1.1" id="Layer_1" xmlns="http://www.w3.org/2000/svg" xmlns:xlink="http://www.w3.org/1999/xlink" x="0px" y="0px"
	 viewBox="0 0 1938.9 1938.9" style="enable-background:new 0 0 1938.9 1938.9;" xml:space="preserve">
<style type="text/css">
	.st0{fill:#FFFFFF;}
	.st1{fill:#EE3024;}
</style>
<rect class="st0" width="1938.9" height="1938.9"/>
<path class="st1" d="M288.9,377.1v14.3h-22v-153h22.2v62.3c7.8-9.9,20.8-16.1,34.8-16.1c27.5,0,52.2,21,52.2,54.5
	c0,33.3-25.4,54.5-52,54.5C310.1,393.5,296.7,387.4,288.9,377.1z M353.9,338.8c0-19.1-14.5-34-33.1-34c-18.9,0-32.9,15.3-32.9,34
	c0,18.9,14,34.2,32.9,34.2C339.4,372.9,353.9,357.8,353.9,338.8L353.9,338.8z"/>
<path class="st1" d="M391,339c0-33.5,24.9-54.5,52.4-54.5c13.8,0,27,6.1,34.8,15.7v-13.6h22.4v104.8h-22.4v-14.5
	c-8,10.3-21.2,16.6-35,16.6C416.6,393.5,391,372.3,391,339z M479.5,338.8c0-18.6-14-34-33.1-34c-18.7,0-33.1,14.9-33.1,34
	s14.5,34.2,33.1,34.2C465.4,372.9,479.5,357.6,479.5,338.8L479.5,338.8z"/>
<path class="st1" d="M514.7,369.2l20.1-10.5c5.7,9.6,14.9,15.3,26.8,15.3c12.6,0,19.1-6.5,19.1-13.8c0-8.4-12.2-10.3-25.4-13
	c-17.8-3.8-36.3-9.6-36.3-31.2c0-16.6,15.7-31.9,40.5-31.6c19.5,0,34,7.8,42.1,20.3L583,314.9c-4.8-7.3-13-12-23.5-12
	c-12,0-18,5.9-18,12.6c0,7.5,9.7,9.6,24.7,13c17.2,3.8,36.7,9.4,36.7,31.2c0,14.5-12.6,34-42.3,33.7
	C538.8,393.5,523.5,384.7,514.7,369.2z"/>
<path class="st1" d="M617.2,339.4c0-30.8,23.7-54.9,54.5-54.9c31,0,53.9,22.4,53.9,53.5v8.8h-86.8c2.9,16.1,15.5,26.8,33.8,26.8
	c14.2,0,25.2-7.5,30.6-18.9l18.5,10.3c-9.2,17.2-25.8,28.5-49,28.5C639.4,393.5,617.2,369.8,617.2,339.4z M639.8,327.7h62.9
	c-3.3-15.1-14.9-23.5-31-23.5C657,303.9,643.9,313.5,639.8,327.7L639.8,327.7z"/>
<path class="st1" d="M740,339c0-33.5,24.9-54.5,52.4-54.5c13.8,0,27,6.1,34.8,15.7v-61.9h22.2v153h-22.2v-14.4
	c-8,10.3-21.2,16.6-35,16.6C765.6,393.5,740,372.3,740,339z M828.5,338.8c0-18.6-14-34-33.1-34c-18.7,0-33.1,14.9-33.1,34
	s14.5,34.2,33.1,34.2C814.4,372.9,828.5,357.6,828.5,338.8L828.5,338.8z"/>
<path class="st1" d="M919.2,238.4h13l72.5,153h-13L919.2,238.4z"/>
<path class="st1" d="M1090.3,369.6v21.8h-11.5v-153h11.7v69.8c8.6-15.1,26.2-23.7,42.1-23.7c31,0,54.1,24.5,54.1,54.5
	s-23.5,54.5-54.1,54.5C1116.5,393.5,1098.9,384.9,1090.3,369.6z M1174.6,339c0-24.1-18.7-43.6-42.3-43.6
	c-24.5,0-43.2,19.7-43.2,43.6c0,24.1,18.7,43.6,43.2,43.6C1155.9,382.6,1174.6,363.1,1174.6,339z"/>
<path class="st1" d="M1208.5,339c0-30,23.1-54.5,53.9-54.5c15.9,0,33.8,8.6,42.3,23.9v-21.8h12v104.8h-12v-21.8
	c-8.6,15.3-26.4,23.9-42.3,23.9C1231.8,393.5,1208.5,369,1208.5,339z M1306,339c0-23.9-18.7-43.6-43-43.6
	c-23.7,0-42.6,19.5-42.6,43.6s18.9,43.6,42.6,43.6C1287.3,382.6,1306,363.1,1306,339z M1239.5,262.5h55.3V273h-55.3V262.5z"/>
<path class="st1" d="M1337.9,373.8l9.4-7.5c7.6,10.5,19.9,16.8,32.9,16.8c18,0,27-9.9,27-21c0-13-14.7-15.7-30-19.5
	c-16.8-4.2-34.4-9.6-34.4-29.1c0-15.5,14-29.1,36.7-29.1c15.1,0,28.9,5.7,37.5,15.5l-9,7.3c-7.1-8.2-16.3-12.6-28.5-12.6
	c-15.9,0-24.9,8.2-24.9,18.7c0,12.4,14,15.5,29.1,19.3c17,4.2,35.2,9.4,35.2,29.6c0,14.3-11.7,31.4-39.2,31.4
	C1361.8,393.5,1346.7,385.5,1337.9,373.8z"/>
<path class="st1" d="M1435.1,286.6h18V262l12.2-7.1v31.7h26.6v10.7h-26.6V353c0,23.3,4.6,27.2,26.6,27.2v11.1h-1.7
	c-29.1,0-37.1-8-37.1-38.1v-56h-18V286.6z"/>
<path class="st1" d="M1560.7,238.4h13l72.5,153h-13L1560.7,238.4z"/>
<path class="st1" d="M266.5,590.5c0-31,24.1-54.5,54.7-54.5c22.9,0,41.5,13,49.5,31.9l-10.9,4.6c-6.9-15.7-20.8-25.6-38.8-25.6
	c-24.1,0-42.5,19.5-42.5,43.6s18.7,43.6,43.2,43.6c18.7,0,32.1-11.3,38.6-26.6l11.1,4.6c-8.2,19.3-25.8,32.9-49.9,32.9
	C290,645,266.5,620.7,266.5,590.5z"/>
<path class="st1" d="M390.8,590.5c0-30,24.4-54.4,54.5-54.3c30,0,54.4,24.4,54.3,54.5c0,30-24.4,54.4-54.5,54.3c0,0,0,0,0,0
	c-29.8,0.2-54.1-23.8-54.3-53.6C390.8,591.1,390.8,590.8,390.8,590.5z M487.4,590.5c0-24.1-18.6-43.6-42.3-43.6
	s-42.4,19.5-42.4,43.6s18.7,43.6,42.4,43.6S487.4,614.6,487.4,590.5z"/>
<path class="st1" d="M524.5,596.8v-58.7h12v58.7c0,22.4,13,37.3,35.8,37.3c21,0,37.1-16.1,37.1-37.5v-58.5h12v104.8h-11.8v-19.3
	c-7.1,12.8-21.2,21.4-38.4,21.4C541.7,645,524.5,626.8,524.5,596.8z"/>
<path class="st1" d="M652.6,538.1h11.7v20.3c6.1-12.6,18-20.3,34.2-20.3h9.8v11.1h-9.8c-22.2,0-34,13.8-34,39v54.7h-11.9V538.1z"/>
<path class="st1" d="M720.1,590.5c0-30,23.1-54.5,53.9-54.5c15.9,0,33.8,8.6,42.3,23.9v-21.8h12v104.8h-11.9v-21.8
	c-8.6,15.3-26.4,23.9-42.3,23.9C743.4,645,720.1,620.5,720.1,590.5z M817.6,590.5c0-23.9-18.7-43.6-43-43.6
	c-23.7,0-42.5,19.5-42.5,43.6s18.9,43.6,42.5,43.6C798.9,634.1,817.6,614.6,817.6,590.5L817.6,590.5z"/>
<path class="st1" d="M853.6,590.5c0-30,23.1-54.5,53.9-54.5c15.9,0,33.8,8.6,42.3,23.9v-21.8h12v102.7c0,32.3-20.5,53-51.8,53
	c-25.8,0-41.5-11.3-49-28.9l11.7-4c5.7,13.6,17.4,22.2,37.3,22.2c24.5,0,40-16.8,40-41.9v-20.5c-8.6,15.7-26.4,24.3-42.6,24.3
	C876.9,645,853.6,620.5,853.6,590.5z M951.1,590.5c0-23.9-18.7-43.6-43-43.6c-23.7,0-42.5,19.5-42.5,43.6s18.9,43.6,42.5,43.6
	C932.5,634.1,951.1,614.6,951.1,590.5z"/>
<path class="st1" d="M987.2,591.2c0-31,23.1-55.1,54.3-55.1c30.6,0,53.7,21.8,53.7,53.2v5.2h-96.6c1.7,23.1,18.9,39.8,43.6,39.8
	c19.5,0,32.7-10.1,39.6-26.2l10.5,5c-9.4,20.1-25.6,31.9-49.9,31.9C1008.3,645,987.2,621.8,987.2,591.2z M998.9,583.6h83.9
	c-2.3-22-18-36.9-41.3-36.9C1019.4,546.7,1002.2,562.4,998.9,583.6L998.9,583.6z"/>
<path class="st1" d="M1116.1,590.5c0.1-30,24.5-54.4,54.5-54.3c30,0.1,54.4,24.5,54.3,54.5c-0.1,30-24.5,54.4-54.5,54.3c0,0,0,0,0,0
	c-29.8,0.2-54.1-23.8-54.3-53.6C1116.1,591.1,1116.1,590.8,1116.1,590.5z M1212.7,590.5c0-24.1-18.7-43.6-42.3-43.6
	s-42.3,19.5-42.3,43.6s18.7,43.6,42.3,43.6S1212.7,614.6,1212.7,590.5z"/>
<path class="st1" d="M1249.8,596.8v-58.7h12v58.7c0,22.4,13,37.3,35.8,37.3c21,0,37.1-16.1,37.1-37.5v-58.5h12v104.8H1335v-19.3
	c-7.1,12.8-21.2,21.4-38.4,21.4C1267,645,1249.8,626.8,1249.8,596.8z"/>
<path class="st1" d="M1367.8,625.3l9.4-7.5c7.6,10.5,19.9,16.8,32.9,16.8c18,0,27-9.8,27-21c0-13-14.7-15.7-30-19.5
	c-16.8-4.2-34.4-9.7-34.4-29.1c0-15.5,14.1-29.1,36.7-29.1c15.1,0,28.9,5.7,37.5,15.5l-9,7.3c-7.1-8.2-16.4-12.6-28.5-12.6
	c-15.9,0-25,8.2-25,18.7c0,12.4,14.1,15.5,29.1,19.3c17,4.2,35.2,9.4,35.2,29.6c0,14.2-11.7,31.4-39.2,31.4
	C1391.7,645,1376.6,637.1,1367.8,625.3z"/>
<path class="st1" d="M266.5,842.1c0-30,23.1-54.5,53.9-54.5c15.9,0,33.8,8.6,42.4,23.9v-21.8h12v104.8h-12v-21.8
	c-8.6,15.3-26.4,23.9-42.4,23.9C289.8,896.6,266.5,872,266.5,842.1z M364,842.1c0-23.9-18.7-43.6-43-43.6
	c-23.7,0-42.5,19.5-42.5,43.6s18.9,43.6,42.5,43.6C345.3,885.7,364,866.2,364,842.1L364,842.1z"/>
<path class="st1" d="M405.9,789.7h11.5v19.7c7.1-12.8,21.2-21.8,39-21.8c28.1,0,46.3,18.2,46.3,48.2v58.7h-12v-58.7
	c0-22.4-13-37.3-35.9-37.3c-21.2,0-37.3,16.1-37.3,37.5v58.5h-11.7V789.7z"/>
<path class="st1" d="M527.7,842.1c0-30,23.1-54.5,53.9-54.5c15.9,0,33.8,8.6,42.3,23.9v-70h11.5v153h-11.5v-21.8
	c-8.6,15.3-26.4,23.9-42.3,23.9C550.9,896.6,527.7,872,527.7,842.1z M625.1,842.1c0-23.9-18.7-43.6-43-43.6
	c-23.7,0-42.5,19.5-42.5,43.6s18.9,43.6,42.5,43.6C606.5,885.7,625.1,866.2,625.1,842.1z"/>
<path class="st1" d="M718.2,848.4v-58.7h12v58.7c0,22.4,13,37.3,35.8,37.3c21,0,37.1-16.1,37.1-37.5v-58.5h12v104.8h-11.7v-19.3
	c-7.1,12.8-21.2,21.4-38.3,21.4C735.4,896.6,718.2,878.3,718.2,848.4z"/>
<path class="st1" d="M846.3,789.7h11.5v19.7c7.1-12.8,21.2-21.8,39-21.8c28.1,0,46.3,18.2,46.3,48.2v58.7h-12v-58.7
	c0-22.4-13-37.3-35.8-37.3c-21.2,0-37.3,16.1-37.3,37.5v58.5h-11.7V789.7z"/>
<path class="st1" d="M972.5,741.5h12v30.4h-12V741.5z M972.5,789.7h12v104.8h-12V789.7z"/>
<path class="st1" d="M1009.8,842.1c0-30,23.1-54.5,53.9-54.5c15.9,0,33.8,8.6,42.3,23.9v-21.8h11.5v153H1106v-69.2
	c-8.4,15.1-25.6,23-42.3,23C1033.1,896.6,1009.8,872,1009.8,842.1z M1107.3,842.1c0-23.9-18.7-43.6-43-43.6
	c-23.7,0-42.6,19.5-42.6,43.6s18.9,43.6,42.6,43.6C1088.6,885.7,1107.3,866.2,1107.3,842.1z"/>
<path class="st1" d="M1146.9,848.4v-58.7h11.9v58.7c0,22.4,13,37.3,35.8,37.3c21,0,37.1-16.1,37.1-37.5v-58.5h12v104.8H1232v-19.3
	c-7.1,12.8-21.2,21.4-38.4,21.4C1164.1,896.6,1146.9,878.3,1146.9,848.4z"/>
<path class="st1" d="M1269.1,842.7c0-31,23.1-55.1,54.3-55.1c30.6,0,53.7,21.8,53.7,53.2v5.2h-96.6c1.7,23.1,18.9,39.8,43.6,39.8
	c19.5,0,32.7-10.1,39.6-26.2l10.5,5c-9.4,20.1-25.6,31.9-49.9,31.9C1290.3,896.6,1269.1,873.3,1269.1,842.7z M1280.8,835.2h83.8
	c-2.3-22-18-36.9-41.3-36.9C1301.4,798.3,1284.2,814,1280.8,835.2z"/>
<path class="st1" d="M1403.2,876.2h13.2l-12.6,42.8h-9.6L1403.2,876.2z"/>
<path class="st1" d="M1491.3,842.1c0.1-30,24.5-54.4,54.5-54.3c30,0.1,54.4,24.5,54.3,54.5c-0.1,30-24.5,54.4-54.5,54.3
	c-29.8,0.2-54.1-23.9-54.3-53.7C1491.3,842.6,1491.3,842.3,1491.3,842.1z M1587.9,842.1c0-24.1-18.7-43.6-42.3-43.6
	s-42.3,19.5-42.3,43.6s18.7,43.6,42.3,43.6S1587.9,866.2,1587.9,842.1z"/>
<path class="st1" d="M1625.4,789.7h11.7V810c6.1-12.6,18-20.3,34.2-20.3h9.8v11.1h-9.8c-22.2,0-34,13.8-34,39v54.7h-12L1625.4,789.7
	z"/>
<path class="st1" d="M270.9,1041.2h11.5v19.7c7.1-12.8,21.2-21.8,39-21.8c28.1,0,46.3,18.2,46.3,48.2v58.7h-12v-58.7
	c0-22.4-13-37.3-35.8-37.3c-21.2,0-37.3,16.1-37.3,37.5v58.5h-11.7V1041.2z"/>
<path class="st1" d="M392.7,1093.6c0.1-30,24.5-54.4,54.5-54.3s54.4,24.5,54.3,54.5c-0.1,30-24.5,54.4-54.5,54.3
	c-29.8,0.2-54.1-23.9-54.3-53.7C392.7,1094.2,392.7,1093.9,392.7,1093.6z M489.3,1093.6c0-24.1-18.7-43.6-42.3-43.6
	s-42.4,19.5-42.4,43.6s18.7,43.6,42.4,43.6S489.3,1117.7,489.3,1093.6z"/>
<path class="st1" d="M513.4,1041.2h18v-24.5l12.2-7.1v31.7h26.6v10.7h-26.6v55.8c0,23.3,4.6,27.2,26.6,27.2v11.1h-1.7
	c-29.1,0-37.1-8-37.1-38.2v-56h-18L513.4,1041.2z"/>
<path class="st1" d="M643.6,1093.6c0-31,24.1-54.5,54.7-54.5c22.8,0,41.5,13,49.5,31.9l-10.9,4.6c-6.9-15.7-20.8-25.6-38.8-25.6
	c-24.1,0-42.6,19.5-42.6,43.6s18.7,43.6,43.2,43.6c18.7,0,32.1-11.3,38.6-26.6l11.1,4.6c-8.2,19.3-25.8,32.9-49.9,32.9
	C667.1,1148.1,643.6,1123.8,643.6,1093.6z"/>
<path class="st1" d="M767.9,1093.6c0-30,23.1-54.5,53.9-54.5c15.9,0,33.8,8.6,42.3,23.9v-21.8h11.9V1146h-11.9v-21.8
	c-8.6,15.3-26.4,23.9-42.3,23.9C791.2,1148.1,767.9,1123.6,767.9,1093.6z M865.4,1093.6c0-23.9-18.7-43.6-43-43.6
	c-23.7,0-42.5,19.5-42.5,43.6s18.9,43.6,42.5,43.6C846.7,1137.2,865.4,1117.7,865.4,1093.6z"/>
<path class="st1" d="M907.3,1041.2H919v20.3c6.1-12.6,18-20.3,34.2-20.3h9.8v11.1h-9.8c-22.2,0-34,13.8-34,39v54.7h-12L907.3,1041.2
	z"/>
<path class="st1" d="M987.6,993h12v30.4h-12V993z M987.6,1041.2h12V1146h-12V1041.2z"/>
<path class="st1" d="M1029.7,1041.2h11.5v19.7c7.1-12.8,21.2-21.8,39-21.8c28.1,0,46.3,18.2,46.3,48.2v58.7h-12v-58.7
	c0-22.4-13-37.3-35.8-37.3c-21.2,0-37.3,16.1-37.3,37.5v58.5h-11.7L1029.7,1041.2z"/>
<path class="st1" d="M1151.5,1093.6c0-30,23.1-54.5,53.9-54.5c15.9,0,33.8,8.6,42.3,23.9v-21.8h12v102.7c0,32.3-20.6,53-51.8,53
	c-25.8,0-41.5-11.3-49.1-28.9l11.7-4c5.7,13.6,17.4,22.2,37.3,22.2c24.5,0,40-16.8,40-41.9v-20.5c-8.6,15.7-26.4,24.3-42.6,24.3
	C1174.8,1148.1,1151.5,1123.6,1151.5,1093.6z M1249,1093.6c0-23.9-18.7-43.6-43-43.6c-23.7,0-42.6,19.5-42.6,43.6
	s18.9,43.6,42.6,43.6C1230.3,1137.2,1249,1117.7,1249,1093.6L1249,1093.6z"/>
<path class="st1" d="M264.2,1292.8H277l27.7,87.2l34.2-87.2h11.3l33.8,87.4l28.5-87.4H425l-35,104.8h-11.4l-34.4-87.8l-34.6,87.8
	h-11.5L264.2,1292.8z"/>
<path class="st1" d="M448.2,1244.6H460v67.5c7.3-12.6,21.4-21.4,39-21.4c27.9,0,46.3,18.2,46.3,48.2v58.7h-12.2v-58.7
	c0-22.4-12.8-37.3-35.8-37.3c-21,0-37.1,16.1-37.1,37.5v58.5h-11.9V1244.6z"/>
<path class="st1" d="M570,1345.2c0-30,23-54.5,53.9-54.5c15.9,0,33.8,8.6,42.3,23.9v-21.8h12v104.8h-11.9v-21.8
	c-8.6,15.3-26.4,23.9-42.3,23.9C593.3,1399.7,570,1375.2,570,1345.2z M667.5,1345.2c0-23.9-18.7-43.6-43-43.6
	c-23.7,0-42.6,19.5-42.6,43.6s18.9,43.6,42.6,43.6C648.8,1388.8,667.5,1369.3,667.5,1345.2L667.5,1345.2z"/>
<path class="st1" d="M699.8,1292.8h18v-24.5l12.2-7.1v31.7h26.6v10.7H730v55.8c0,23.3,4.6,27.2,26.6,27.2v11.1h-1.7
	c-29.1,0-37.1-8-37.1-38.2v-56h-18L699.8,1292.8z"/>
<path class="st1" d="M830,1345.2c0.1-30,24.5-54.4,54.5-54.3s54.4,24.5,54.3,54.5c-0.1,30-24.5,54.4-54.5,54.3c0,0,0,0,0,0
	c-29.8,0.2-54.1-23.8-54.3-53.6C830,1345.8,830,1345.5,830,1345.2z M926.6,1345.2c0-24.1-18.7-43.6-42.3-43.6s-42.3,19.5-42.3,43.6
	s18.7,43.6,42.3,43.6S926.6,1369.3,926.6,1345.2L926.6,1345.2z"/>
<path class="st1" d="M950.7,1292.8h18v-24.5l12.2-7.1v31.7h26.6v10.7h-26.6v55.8c0,23.3,4.6,27.2,26.6,27.2v11.1h-1.7
	c-29.1,0-37.1-8-37.1-38.2v-56h-18L950.7,1292.8z"/>
<path class="st1" d="M1032.2,1244.6h11.8v67.5c7.3-12.6,21.4-21.4,39-21.4c27.9,0,46.3,18.2,46.3,48.2v58.7h-12.2v-58.7
	c0-22.4-12.8-37.3-35.8-37.3c-21,0-37.1,16.1-37.1,37.5v58.5h-12L1032.2,1244.6z"/>
<path class="st1" d="M1154,1345.8c0-31,23-55.1,54.3-55.1c30.6,0,53.7,21.8,53.7,53.2v5.2h-96.6c1.7,23.1,18.9,39.8,43.6,39.8
	c19.5,0,32.7-10.1,39.6-26.2l10.5,5c-9.4,20.1-25.6,31.9-49.9,31.9C1175.2,1399.7,1154,1376.4,1154,1345.8z M1165.7,1338.2h83.8
	c-2.3-22-18-36.9-41.3-36.9C1186.3,1301.4,1169.1,1317.1,1165.7,1338.2L1165.7,1338.2z"/>
<path class="st1" d="M1287.3,1292.8h11.7v20.3c6.1-12.6,18-20.3,34.2-20.3h9.8v11.1h-9.8c-22.2,0-34,13.8-34,39v54.7h-11.9
	L1287.3,1292.8z"/>
<path class="st1" d="M1358,1380l9.4-7.6c7.6,10.5,19.9,16.8,32.9,16.8c18,0,27.1-9.8,27.1-21c0-13-14.7-15.7-30-19.5
	c-16.8-4.2-34.4-9.6-34.4-29.1c0-15.5,14-29.1,36.7-29.1c15.1,0,28.9,5.7,37.5,15.5l-9,7.3c-7.1-8.2-16.3-12.6-28.5-12.6
	c-15.9,0-24.9,8.2-24.9,18.7c0,12.4,14,15.5,29.1,19.3c17,4.2,35.2,9.4,35.2,29.6c0,14.2-11.7,31.4-39.2,31.4
	C1381.9,1399.7,1366.8,1391.7,1358,1380z"/>
<path class="st1" d="M262.7,1544.3h18v-24.5l12.2-7.1v31.7h26.6v10.7h-26.6v55.8c0,23.3,4.6,27.2,26.6,27.2v11.1h-1.7
	c-29.1,0-37.1-8-37.1-38.2v-56h-18L262.7,1544.3z"/>
<path class="st1" d="M344.2,1496.1H356v67.5c7.3-12.6,21.4-21.4,39-21.4c27.9,0,46.3,18.2,46.3,48.2v58.7h-12.2v-58.7
	c0-22.4-12.8-37.3-35.8-37.3c-21,0-37.1,16.1-37.1,37.5v58.5h-12V1496.1z"/>
<path class="st1" d="M470.5,1496.1h11.9v30.4h-11.9V1496.1z M470.5,1544.3h11.9v104.8h-11.9V1544.3z"/>
<path class="st1" d="M512.6,1544.3h11.5v19.7c7.1-12.8,21.2-21.8,39-21.8c28.1,0,46.3,18.2,46.3,48.2v58.7h-12v-58.7
	c0-22.4-13-37.3-35.8-37.3c-21.2,0-37.3,16.1-37.3,37.5v58.5h-11.7V1544.3z"/>
<path class="st1" d="M674.2,1595.5l-23.5,24.5v29.1H639v-153h11.7v110.1l59.5-61.8h15.3l-42.8,44l44.7,60.8h-14L674.2,1595.5z"/>
<path class="st1" d="M747.6,1620.4h12.2v28.7h-12.2V1620.4z"/>
</svg>
