<svg xmlns="http://www.w3.org/2000/svg" viewBox="0 0 1938.87 1938.87"><defs><style>.cls-1{fill:#231f20;}.cls-2{fill:#fff;}</style></defs><g id="Layer_2" data-name="Layer 2"><g id="Layer_1-2" data-name="Layer 1"><rect class="cls-1" width="1938.87" height="1938.87"/><path class="cls-2" d="M250.09,177.77h51.78c31,0,50.31,15.51,50.31,41.71,0,13.63-6.08,24.53-18,31.24C348.82,257,357,269.37,357,286.56c0,28.3-20.33,44.23-51.57,44.23H250.09Zm22.85,20.75v43h29.77c18.44,0,26.62-9.22,26.62-22,0-13.2-9.43-21-27.46-21Zm0,64.15v47.16h32.49c18,0,28.72-9.43,28.72-23.69,0-14.46-8.59-23.47-29.77-23.47Z"/><path class="cls-2" d="M372.51,278.39c0-33.54,24.94-54.5,52.41-54.5,13.83,0,27,6.07,34.79,15.72V226h22.43V330.79H459.71V316.33c-8,10.27-21.17,16.56-35,16.56C398.08,332.89,372.51,311.72,372.51,278.39Zm88.46-.21c0-18.66-14-34-33.12-34-18.66,0-33.12,14.88-33.12,34s14.46,34.17,33.12,34.17C446.93,312.35,461,297,461,278.18Z"/><path class="cls-2" d="M496.19,308.57l20.12-10.48c5.66,9.65,14.88,15.31,26.83,15.31,12.58,0,19.08-6.5,19.08-13.84,0-8.38-12.16-10.27-25.37-13-17.82-3.77-36.26-9.64-36.26-31.23,0-16.56,15.72-31.86,40.46-31.65,19.49,0,34,7.75,42.13,20.33l-18.66,10.27c-4.82-7.34-13-11.95-23.47-11.95-11.95,0-18,5.87-18,12.58,0,7.55,9.64,9.64,24.73,13,17.19,3.77,36.69,9.43,36.69,31.23,0,14.46-12.58,34-42.35,33.75C520.29,332.89,505,324.09,496.19,308.57Z"/><path class="cls-2" d="M598.69,278.81c0-30.82,23.69-54.92,54.5-54.92,31,0,53.88,22.43,53.88,53.45v8.8H620.28C623.22,302.29,635.79,313,654,313c14.26,0,25.16-7.55,30.61-18.87l18.44,10.27c-9.22,17.19-25.78,28.51-49.05,28.51C620.91,332.89,598.69,309.2,598.69,278.81Zm22.64-11.74h62.89c-3.36-15.09-14.89-23.48-31-23.48A32.58,32.58,0,0,0,621.33,267.07Z"/><path class="cls-2" d="M721.53,278.39c0-33.54,25-54.5,52.41-54.5,13.83,0,27,6.07,34.79,15.72V177.77H831v153H808.73V316.33c-8,10.27-21.17,16.56-35,16.56C747.1,332.89,721.53,311.72,721.53,278.39Zm88.46-.21c0-18.66-14-34-33.12-34-18.66,0-33.12,14.88-33.12,34s14.46,34.17,33.12,34.17C796,312.35,810,297,810,278.18Z"/><path class="cls-2" d="M898.66,177.77h23.69L963.64,297l41.3-119.27h23.69l-53.46,153H952.11Z"/><path class="cls-2" d="M1044.35,182.17H1067v29.35h-22.64Zm0,43.81H1067V330.79h-22.64Z"/><path class="cls-2" d="M1084,226h17.81V201.25l22.64-12.37V226h22.22v20.13h-22.22v41.71c0,18.87,2.94,21.8,22.22,21.8v21.17h-3.35c-31.86,0-41.51-10.06-41.51-42.76V246.11H1084Z"/><path class="cls-2" d="M1157.54,278.39c0-33.54,25-54.5,52.41-54.5,13.84,0,27,6.07,34.8,15.72V226h22.43V330.79h-22.43V316.33c-8,10.27-21.17,16.56-35,16.56C1183.12,332.89,1157.54,311.72,1157.54,278.39Zm88.47-.21c0-18.66-14-34-33.12-34-18.66,0-33.13,14.88-33.13,34s14.47,34.17,33.13,34.17C1232,312.35,1246,297,1246,278.18Z"/><path class="cls-2" d="M1288.77,177.77h22.43v153h-22.43Z"/><path class="cls-2" d="M1333.83,182.17h22.64v29.35h-22.64Zm0,43.81h22.64V330.79h-22.64Z"/><path class="cls-2" d="M1418.94,284.26l-17.61,19.28v27.25h-22.22v-153h22.22V278l47.16-52h27l-40.88,44.86,41.92,60h-25.15Z"/><path class="cls-2" d="M1547.64,177.77H1564v30h-16.35Zm0,48.21H1564V330.79h-16.35Z"/><path class="cls-2" d="M1583.49,312.77l12.78-10.48c7.76,9.64,18.24,16.35,31.66,16.35,15.72,0,23.69-8.39,23.69-18,0-11.11-13.84-13.21-28.3-16.56-16.77-4-34.8-9.44-34.8-30,0-15.51,14.67-30.39,38.15-30.39,15.51,0,30.82,5.66,39.83,16.14l-12,10.06c-7.13-8-16.14-12.37-27.88-12.37-14.46,0-22.22,7.55-22.22,16.35,0,10.69,13.21,13.21,27.46,16.56,17,4,35.64,9.23,35.64,30.19,0,13.41-11.11,32.28-40.25,32.28C1609.06,332.89,1593.76,325.34,1583.49,312.77Z"/><path class="cls-2" d="M248.41,554.39c0-30,22.43-54.5,53.67-54.5,13.41,0,29.56,6.91,38.57,19.28V502h16.14V606.79H340.65V589.6c-9,12.58-25.16,19.29-38.57,19.29C271.26,608.89,248.41,584.36,248.41,554.39Zm93.71,0c0-21.8-16.77-39.83-39.2-39.83-21.39,0-38.15,17.82-38.15,39.83s16.76,39.83,38.15,39.83C325.35,594.22,342.12,576.4,342.12,554.39Z"/><path class="cls-2" d="M386.13,502h15.94v15.51c7.33-10.69,19.91-17.6,35.63-17.6,28.09,0,45.49,18.44,45.49,48.63v58.27H466.84V548.52c0-20.33-10.48-34-31.44-34-19.08,0-33.13,15.09-33.13,34.17v58.06H386.13Z"/><path class="cls-2" d="M559.28,554.39c0-30.82,24.11-54.5,54.29-54.5a54.5,54.5,0,1,1,0,109C583.39,608.89,559.28,585.2,559.28,554.39Zm92.45,0c0-22-16.77-39.83-38.16-39.83s-37.94,17.82-37.94,39.83,16.56,39.83,37.94,39.83S651.73,576.4,651.73,554.39Z"/><path class="cls-2" d="M692.18,502h16.14v15.09C714,507.43,724,502,737.46,502h13v15.09h-13c-21.17,0-28.93,11.12-28.93,35.43v54.29H692.18Z"/><path class="cls-2" d="M773.72,453.77h16.35v30H773.72Zm0,48.21h16.35V606.79H773.72Z"/><path class="cls-2" d="M814.18,554.39c0-30,22.43-54.5,53.66-54.5,13.42,0,29.56,6.91,38.57,19.28V502h16.15V604.91c0,31.86-20.13,53-51.78,53-25.58,0-41.72-11.32-49.26-28.93l15.93-5.24c5,12,15.51,19.92,33.33,19.92,22.85,0,35.84-15.93,35.84-38.36V589.4c-8.8,12.57-25.15,19.49-38.78,19.49C837,608.89,814.18,584.36,814.18,554.39Zm93.7,0c0-21.8-16.77-39.83-39.2-39.83-21.38,0-38.15,17.82-38.15,39.83s16.77,39.83,38.15,39.83C891.11,594.22,907.88,576.4,907.88,554.39Z"/><path class="cls-2" d="M950.85,453.77H967.2v30H950.85Zm0,48.21H967.2V606.79H950.85Z"/><path class="cls-2" d="M995.29,502h15.93v15.51c7.34-10.69,19.92-17.6,35.64-17.6,28.09,0,45.49,18.44,45.49,48.63v58.27H1076V548.52c0-20.33-10.48-34-31.45-34-19.07,0-33.12,15.09-33.12,34.17v58.06H995.29Z"/><path class="cls-2" d="M1116,554.39c0-30,22.43-54.5,53.67-54.5,13.41,0,29.55,6.91,38.57,19.28V502h16.14V606.79h-16.14V589.6c-9,12.58-25.16,19.29-38.57,19.29C1138.88,608.89,1116,584.36,1116,554.39Zm93.7,0c0-21.8-16.77-39.83-39.2-39.83-21.38,0-38.15,17.82-38.15,39.83s16.77,39.83,38.15,39.83C1193,594.22,1209.73,576.4,1209.73,554.39Z"/><path class="cls-2" d="M1252.71,453.77h16.35v153h-16.35Z"/><path class="cls-2" d="M248.41,830.39c0-30,22.43-54.5,53.67-54.5,13.41,0,29.56,6.91,38.57,19.28V778h16.14V880.91c0,31.86-20.12,53-51.78,53-25.57,0-41.71-11.32-49.26-28.93l15.93-5.24c5,12,15.51,19.92,33.33,19.92,22.85,0,35.85-15.93,35.85-38.36V865.4c-8.81,12.57-25.16,19.49-38.78,19.49C271.26,884.89,248.41,860.36,248.41,830.39Zm93.71,0c0-21.8-16.77-39.83-39.2-39.83-21.39,0-38.15,17.82-38.15,39.83s16.76,39.83,38.15,39.83C325.35,870.22,342.12,852.4,342.12,830.39Z"/><path class="cls-2" d="M381.1,831.23c0-31.45,22.85-55.34,54.3-55.34,30.18,0,53.66,20.75,53.66,52.82v6.92H396.83c2.09,20.75,18.44,34.8,39.41,34.8,17,0,28.93-8.81,35.42-21.6l14,6.92c-9.64,18.24-26,29.14-49.47,29.14C402.91,884.89,381.1,862,381.1,831.23Zm16.57-10.48H472.5c-2.93-18.87-16.77-30.4-37.1-30.4C416.53,790.35,401.86,803.14,397.67,820.75Z"/><path class="cls-2" d="M513.38,778h15.93v15.51c7.34-10.69,19.91-17.6,35.64-17.6,28.09,0,45.49,18.44,45.49,48.63v58.27H594.08V824.52c0-20.33-10.48-34-31.44-34-19.08,0-33.12,15.09-33.12,34.17v58.06H513.38Z"/><path class="cls-2" d="M634.12,831.23c0-31.45,22.85-55.34,54.29-55.34,30.19,0,53.67,20.75,53.67,52.82v6.92H649.84c2.1,20.75,18.45,34.8,39.41,34.8,17,0,28.93-8.81,35.43-21.6l14,6.92c-9.64,18.24-26,29.14-49.47,29.14C655.92,884.89,634.12,862,634.12,831.23Zm16.56-10.48h74.84c-2.94-18.87-16.77-30.4-37.11-30.4C669.55,790.35,654.87,803.14,650.68,820.75Z"/><path class="cls-2" d="M766.39,778h16.14v15.09c5.66-9.64,15.73-15.09,29.14-15.09h13v15.09h-13c-21.17,0-28.93,11.12-28.93,35.43v54.29H766.39Z"/><path class="cls-2" d="M837.66,830.39c0-30,22.43-54.5,53.67-54.5,13.41,0,29.55,6.91,38.57,19.28V778H946V882.79H929.9V865.6c-9,12.58-25.16,19.29-38.57,19.29C860.51,884.89,837.66,860.36,837.66,830.39Zm93.71,0c0-21.8-16.77-39.83-39.2-39.83-21.39,0-38.16,17.82-38.16,39.83s16.77,39.83,38.16,39.83C914.6,870.22,931.37,852.4,931.37,830.39Z"/><path class="cls-2" d="M967.21,778h18V753.25l16.35-9V778h24.73v14.68h-24.73v49.89c0,21.38,4,24.94,24.73,24.94v15.3H1024c-30.61,0-38.78-8.8-38.78-40v-50.1h-18Z"/><path class="cls-2" d="M1050.22,729.77h16.35v30h-16.35Zm0,48.21h16.35V882.79h-16.35Z"/><path class="cls-2" d="M1086.9,778h17.61l31.44,82.8,31-82.8h17.4l-40.67,104.81h-16.14Z"/><path class="cls-2" d="M1196.53,831.23c0-31.45,22.85-55.34,54.3-55.34,30.18,0,53.66,20.75,53.66,52.82v6.92h-92.23c2.09,20.75,18.44,34.8,39.41,34.8,17,0,28.93-8.81,35.42-21.6l14.05,6.92c-9.64,18.24-26,29.14-49.47,29.14C1218.34,884.89,1196.53,862,1196.53,831.23Zm16.57-10.48h74.83c-2.93-18.87-16.77-30.4-37.1-30.4C1232,790.35,1217.29,803.14,1213.1,820.75Z"/><path class="cls-2" d="M253.44,1005.77h47.8c33.33,0,55.76,22.85,55.76,52.61s-22.43,52.83-55.76,52.83H269.8v47.58H253.44Zm16.36,15.09v75.05h30.39c25.16,0,40.25-16.35,40.25-37.53,0-21.38-15.09-37.52-40.25-37.52Z"/><path class="cls-2" d="M383,1005.77h86.58v15.51H399.34v53h70.23v15.51H399.34v69H383Z"/><path class="cls-2" d="M497.24,1005.77H545c33.33,0,55.76,22.85,55.76,52.61s-22.43,52.83-55.76,52.83H513.59v47.58H497.24Zm16.35,15.09v75.05H544c25.16,0,40.25-16.35,40.25-37.53,0-21.38-15.09-37.52-40.25-37.52Z"/><path class="cls-2" d="M679.19,1005.77h18.24l90.14,127v-127h16.35v153h-17.4l-91-128.08v128.08H679.19Z"/><path class="cls-2" d="M834.1,1005.77h86.58v15.51H850.45v53h70.23v15.51H850.45v69H834.1Z"/><path class="cls-2" d="M989,1020.86H942.9v-15.09h108.37v15.09h-45.9v137.93H989Z"/><path class="cls-2" d="M1143.09,1141.6v17.19h-15.51v-153h15.72V1071c8.8-12.37,24.73-19.07,38.36-19.07,31.24,0,53.66,24.52,53.66,54.5s-22.84,54.5-53.66,54.5C1168,1160.89,1151.89,1154.18,1143.09,1141.6Zm75.88-35.21c0-22-16.77-39.83-38.15-39.83-22.43,0-39.2,18-39.2,39.83,0,22,16.77,39.83,39.2,39.83C1202.2,1146.22,1219,1128.4,1219,1106.39Z"/><path class="cls-2" d="M1290.66,1152.72,1245.39,1054h17.81l36.06,80.08,33.33-80.08h17.61l-66,153.24H1267Z"/><path class="cls-2" d="M248.83,1358.28a78.6,78.6,0,0,1,146.74-39.2l-14,8.18a61.28,61.28,0,0,0-54.09-32.08c-35.21,0-61.84,28.51-61.84,63.1s26.63,63.1,61.84,63.1c26.62,0,45.7-14.05,55.76-34.38l14.47,7.55c-13.21,25.15-38.36,42.34-70.23,42.34A78.64,78.64,0,0,1,248.83,1358.28Z"/><path class="cls-2" d="M416.53,1382.39c0-30,22.43-54.5,53.66-54.5,13.42,0,29.56,6.91,38.58,19.28V1330h16.14v104.81H508.77V1417.6c-9,12.58-25.16,19.29-38.58,19.29C439.38,1436.89,416.53,1412.36,416.53,1382.39Zm93.7,0c0-21.8-16.77-39.83-39.2-39.83-21.38,0-38.15,17.82-38.15,39.83s16.77,39.83,38.15,39.83C493.46,1422.22,510.23,1404.4,510.23,1382.39Z"/><path class="cls-2" d="M554.25,1330h16.14v15.09c5.66-9.64,15.72-15.09,29.14-15.09h13v15.09h-13c-21.17,0-28.93,11.12-28.93,35.43v54.29H554.25Z"/><path class="cls-2" d="M628.87,1330h18v-24.73l16.35-9V1330H688v14.68H663.25v49.89c0,21.38,4,24.94,24.74,24.94v15.3h-2.31c-30.6,0-38.78-8.8-38.78-40v-50.1h-18Z"/><path class="cls-2" d="M750.45,1428.72,705.17,1330H723l36.06,80.08L792.38,1330H810l-66,153.24H726.77Z"/><path class="cls-2" d="M830.32,1281.77h16.35v30H830.32Zm0,48.21h16.35v104.81H830.32Z"/><path class="cls-2" d="M866.16,1416.77,879,1406.29c7.76,9.64,18.24,16.35,31.65,16.35,15.73,0,23.69-8.39,23.69-18,0-11.11-13.83-13.21-28.3-16.56-16.77-4-34.8-9.44-34.8-30,0-15.51,14.68-30.39,38.16-30.39,15.51,0,30.81,5.66,39.83,16.14l-11.95,10.06c-7.13-8-16.14-12.37-27.88-12.37-14.47,0-22.22,7.55-22.22,16.35,0,10.69,13.2,13.21,27.46,16.56,17,4,35.63,9.23,35.63,30.19,0,13.41-11.11,32.28-40.24,32.28C891.74,1436.89,876.44,1429.34,866.16,1416.77Z"/><path class="cls-2" d="M974.33,1330h15.93v14.26c6.92-10.07,18.66-16.35,33.54-16.35,18.87,0,31.44,8.8,37.31,21.38,6.71-12.79,20.34-21.38,38-21.38,30.18,0,46.74,18.44,46.74,45.27v61.63h-16.35v-62.67c0-17.4-11.74-29.77-30.6-29.77-17.19,0-30.82,11.74-30.82,31.44v61h-16.14v-64.56c0-16.77-11.74-27.88-29.35-27.88-18.44,0-32.07,12.37-32.07,33.33v59.11H974.33Z"/><path class="cls-2" d="M1169.7,1383.23c0-31.45,22.85-55.34,54.29-55.34,30.19,0,53.66,20.75,53.66,52.82v6.92h-92.23c2.09,20.75,18.44,34.8,39.41,34.8,17,0,28.93-8.81,35.42-21.6l14,6.92c-9.64,18.24-26,29.14-49.47,29.14C1191.5,1436.89,1169.7,1414,1169.7,1383.23Zm16.56-10.48h74.83c-2.93-18.87-16.77-30.4-37.1-30.4C1205.12,1342.35,1190.45,1355.14,1186.26,1372.75Z"/><path class="cls-2" d="M1454.58,1420.12c-12.58,10.27-27.88,17-45.28,17-42.77,0-59.54-26.83-59.54-49.68,0-20.54,11.53-36.69,28.3-45.91-5.87-8-9-16.14-9-26.2,0-19.29,14.88-35.64,39.41-35.64,18.66,0,30.81,9.43,37.52,19.92l-13.41,8.8c-4.62-7.34-12-14.46-24.11-14.46-13.84,0-22.64,9.85-22.64,21.38,0,12.79,7.13,20.33,25.36,38.78l44.65,44.86a81.75,81.75,0,0,0,17.61-39.83h-24.73v-15.3h40.66v6.91c0,18.87-8.59,41.09-23.47,58.28l25.78,25.78h-22.22Zm-10.07-10.06L1398,1363.52c-3.78-3.77-7.34-7.33-10.48-10.69-13.63,7.76-21.39,18.87-21.39,34.38,0,16.56,13.42,35.43,43.19,35.43A56.43,56.43,0,0,0,1444.51,1410.06Z"/><path class="cls-2" d="M303.34,1557.77h17.6l58.07,153H362L347.15,1672H277.34l-14.67,38.78H245.48Zm-20.13,98.73h58.07l-29.14-76.72Z"/><path class="cls-2" d="M399.13,1606h16.14v15.09c5.66-9.64,15.73-15.09,29.14-15.09h13v15.09h-13c-21.17,0-28.93,11.12-28.93,35.43v54.29H399.13Z"/><path class="cls-2" d="M473.76,1606h18v-24.73l16.35-9V1606h24.73v14.68H508.14v49.89c0,21.38,4,24.94,24.73,24.94v15.3h-2.3c-30.61,0-38.78-8.8-38.78-40v-50.1h-18Z"/><path class="cls-2" d="M551.53,1695.07h43.6v-105c-4.4,6.5-15.51,9.85-25,9.85h-2.51v-17h1.05c20.12,0,27-14.25,27-25.15h15.72v137.3h45.7v15.72H551.53Z"/><path class="cls-2" d="M679,1664.47v-58.91c0-28.72,19.49-49.89,48.63-49.89,30,0,48.63,21.8,48.63,49.89v58.91c0,30-17.6,48.42-48.63,48.42C695.75,1712.89,679,1693.81,679,1664.47Zm80.91,0v-58.91c0-22.22-11.11-35-32.07-35-21.59,0-32.49,14-32.49,35v58.7c0,21,10.48,33.75,32.07,33.75S759.89,1684.8,759.89,1664.47Z"/><path class="cls-2" d="M798,1695.07h43.61v-105c-4.41,6.5-15.52,9.85-24.95,9.85h-2.51v-17h1c20.13,0,27-14.25,27-25.15H858v137.3h45.69v15.72H798Z"/><path class="cls-2" d="M925.5,1682.08h16.35v28.71H925.5Z"/></g></g></svg>