<?xml version="1.0" encoding="utf-8"?>
<!-- Generator: Adobe Illustrator 25.4.1, SVG Export Plug-In . SVG Version: 6.00 Build 0)  -->
<svg version="1.1" id="Layer_1" xmlns="http://www.w3.org/2000/svg" xmlns:xlink="http://www.w3.org/1999/xlink" x="0px" y="0px"
	 viewBox="0 0 465.2 240.8" style="enable-background:new 0 0 465.2 240.8;" xml:space="preserve">
<style type="text/css">
	.st0{fill:#EE3024;}
	.st1{fill:#FFFFFF;}
</style>
<rect class="st0" width="465.2" height="240.8"/>
<g>
	<path class="st1" d="M32,128.7h23.9L69,171.5l12.4-42.8h23.4L81,208.8H56.9L32,128.7z"/>
	<path class="st1" d="M112.1,128.7h23.4v80.2h-23.4V128.7z"/>
	<path class="st1" d="M163.3,149.9h-18.8v-21.2h58.9v21.2h-18.2v59h-21.9L163.3,149.9L163.3,149.9z"/>
	<path class="st1" d="M220.3,128.7h21.5l26.4,80.2h-22.9l-3-9.6h-22.8l-3,9.6h-22.8L220.3,128.7z M231.1,162.5l-5.3,16.6h10.3
		L231.1,162.5z"/>
	<path class="st1" d="M275.5,128.7h23v58.1h23.3v22.1h-46.3V128.7z"/>
	<path class="st1" d="M331,128.7h23.4v80.2H331V128.7z"/>
	<path class="st1" d="M391.3,178.5l-4.7,7v23.3h-23v-80.2h23v24.9l17.2-24.9h26.7l-22.7,31.9l24.2,48.3h-25.6L391.3,178.5z"/>
</g>
<g>
	<rect x="289.7" y="61.3" class="st1" width="46.2" height="21.1"/>
	<path class="st1" d="M32,32h29.3c20.9,0,30.3,7.5,30.3,23.1c0,7.1-2.6,12.2-6.9,15.5c5.7,3.4,8.8,8.8,8.8,16.7
		c0,17.6-12,24.9-32.7,24.9H32V32z M54,51.7v9.9h8.9c4.2,0,6.1-2.2,6.1-5.2s-2-4.7-6.3-4.7H54z M54,81.8v10.7h7.5
		c6.1,0,8.1-2,8.1-5.7c0-3.6-2-4.9-7.6-4.9C62,81.8,54,81.8,54,81.8z"/>
	<path class="st1" d="M134.7,32h21.6l26.5,80.2h-23l-3-9.6h-22.9l-3,9.6h-22.9L134.7,32z M145.5,65.8l-5.3,16.6h10.3L145.5,65.8z"/>
	<path class="st1" d="M197.8,98.7l19.5-15.4c3.6,5.8,8.7,8.9,13.4,8.9c4,0,7-2.4,7-4.8c0-3.4-6.1-4.4-13.1-6.4
		c-10.5-2.9-23.3-7.6-23.3-24.2c0-15,11.7-26.1,29.2-26.1c15.3,0,24.4,6.8,30.2,13.8l-18.2,14.1c-2.6-4.7-7.3-8.1-11.9-8.1
		c-3.7,0-6.3,2.1-6.3,4.5c0,3.5,6.1,4.7,13.3,6.8c10.7,3.1,24,7.9,24,24.4c0,14.6-11.2,27.2-31,27.2
		C213.1,113.4,204.5,106.1,197.8,98.7z"/>
	<path class="st1" d="M282,51.7V32h61.6v21.1h-31.7 M311.9,91.2h31.7v21H282V92.4"/>
	<path class="st1" d="M364.3,32h26.2c22.9,0,41.2,17.4,41.2,40.1c0,22.8-17.9,40.1-41.2,40.1h-26.2V32z M387.2,53.5v37.1h3.3
		c10.8,0,17.7-8.5,17.7-18.6s-7.3-18.6-17.7-18.6C390.5,53.5,387.2,53.5,387.2,53.5z"/>
	<rect x="282" y="91.1" class="st1" width="61.6" height="21.1"/>
	<rect x="282" y="32" class="st1" width="61.6" height="21.1"/>
</g>
</svg>
