<?xml version="1.0" encoding="utf-8"?>
<!-- Generator: Adobe Illustrator 25.4.1, SVG Export Plug-In . SVG Version: 6.00 Build 0)  -->
<svg version="1.1" id="Layer_1" xmlns="http://www.w3.org/2000/svg" xmlns:xlink="http://www.w3.org/1999/xlink" x="0px" y="0px"
	 viewBox="0 0 465.2 156.8" style="enable-background:new 0 0 465.2 156.8;" xml:space="preserve">
<style type="text/css">
	.st0{fill:#FFFFFF;}
	.st1{fill:#EE3024;}
</style>
<rect x="-0.3" class="st0" width="465.2" height="156.8"/>
<g>
	<path class="st1" d="M32.3,83.6l17.3-4.7L32.3,74V52l47.4,16.2v21.5l-47.4,16V83.6z"/>
	<path class="st1" d="M87.2,31.6h27.1l19.4,26.9l20.1-26.9h25.6v93.6h-26.8V74.7l-19,25.6L114,74v51.2H87.2V31.6z"/>
	<path class="st1" d="M186.1,31.6h27.3v93.6h-27.3V31.6z"/>
	<path class="st1" d="M220,31.6h27.4l27.8,43.7V31.6H302v93.6h-25.4l-29.9-47.1v47.1H220V31.6z"/>
	<path class="st1" d="M330.6,56.3h-21.9V31.6h68.9v24.8h-21.3v68.9h-25.6V56.3z"/>
	<path class="st1" d="M384.8,89.7V68.1L432.3,52V74l-17.4,4.9l17.4,4.7v22.1L384.8,89.7z"/>
</g>
</svg>
