<?xml version="1.0" encoding="utf-8"?>
<!-- Generator: Adobe Illustrator 25.4.1, SVG Export Plug-In . SVG Version: 6.00 Build 0)  -->
<svg version="1.1" id="Layer_1" xmlns="http://www.w3.org/2000/svg" xmlns:xlink="http://www.w3.org/1999/xlink" x="0px" y="0px"
	 viewBox="0 0 1600 1600" style="enable-background:new 0 0 1600 1600;" xml:space="preserve">
<style type="text/css">
	.st0{fill:#F6F6F6;}
	.st1{fill:#F8EA6B;}
	.st2{fill:#231F20;}
	.st3{fill:#D5202E;}
</style>
<rect class="st0" width="1600" height="1600"/>
<g id="Non-Fungible_Soup_Logo" transform="translate(-0.2 0.026)">
	<path id="Path_1" class="st1" d="M1453.3,827.9c-0.9-1.9-1.7-3.9-2.1-5.9c0-2.6-10.2-22.7-15-29.1c-9.7-13-25.2-28-40.1-34.9
		c-13.2-5.9-24.7-5.9-37.7-7.1c-12.5-0.7-25.1-0.1-37.5,1.7c-10.9,1-21.4,3.3-32.1,4.8c-9,1.3-17.3,5.3-26.8,6.4
		c-13.4,1.7-27,1.4-40.3-0.7c-6.4-1-13-2.1-19.4-3.6c-5.8-1-12.2-4.1-18.1-3.9c-0.2,3.9-0.7,7.7-1.5,11.5c-0.7,3.7-1.8,7.4-3.3,10.9
		c-3.3,9.4-6.2,18.8-9.7,28.5c-0.9,2.3-1.6,4.6-1.8,7.1c1.7,0.8,3.6,1.4,5.4,1.8c3.5,1.2,6.8,2.9,9.7,5.1c3.4,3.1,6.4,6.6,8.9,10.5
		c1.9,2.8,3.3,5.8,4.3,9c0.4,2.6,1,5.1,1.8,7.6c1.3,5.9,2.2,11.9,2.8,17.9c1.2,15.3,0.8,30.6,1,45.7c-0.2,19.6,1.2,40.5-3.1,59.2
		c-1,4.6-0.5,9.4-2.5,13.2c-2.3,4.1-5.1,7.1-13.6,12.7c-5.8,3.9-6.9,10.5-3.3,20.2c3.5,10.1,6.3,20.4,8.4,30.9l0,0
		c0.8,5.1,2.6,6.7,4.9,3c0.8-1.1,2.3-1.6,3.6-1.3c1.7,0.2,2.8,0,2.8-0.8c0-1.2,31.1-11.2,34-10.7c1.4,0.1,2.8,0,4.1-0.5
		c9.6-1.7,19.3-2.6,29.1-2.6c12.2-0.2,32.4,3,39.1,6.1c2.6,1.2,7.1,3,9.9,3.9c1.8,0.5,3.5,1.2,5.3,1.7c4-8.8,8.7-17.3,14-25.5
		c2.8-4.4,3.3-9.2,5.8-13.7c2.3-4.3,1.5-4.1-4.4-8.1c-3.2-2.7-6.9-4.9-10.9-6.3c-2.1-0.3-8.9-8.4-10.5-12.7
		c-1.3-3.3-1.2-4.9,2.1-9.7c1.7-2.9,4.3-5.3,7.4-6.7c9.5-3,16.8-2.5,27.1-2.3c10.9,0.3,21.1-1.8,31.6-3c12.7-1.7,23-3.3,33.1-9.7
		c15.5-10,27.3-24.7,33.7-41.9c3.9-10.9,6.3-22.2,7.4-33.7C1458.2,851.5,1456.9,835.4,1453.3,827.9z M1371.5,868.6
		c-1.9,7.8-6.5,14.7-12.8,19.6c-3.7,2.3-7.7,4.2-11.8,5.6c-6.3,1.7-12.7,2.7-19.3,3.1c-5.3,0.3-10.6,0.9-15.8,1.8
		c-7.3,0.1-14.5-0.7-21.5-2.5l0,0c-1-0.7-1.7-2.6-1.2-5.6c0.7-4.8,2.1-48,1.8-54.4c0-2.6,1-4.1,4.6-5.3c9.2-3.5,20.6-2.1,30.6-3.6
		c5,0,10,0.5,15,1.5c5.2,0.6,10.3,2.2,15,4.6c7.1,4.6,11.2,9.5,12.2,13.5c0.5,2,1.2,3.9,2.3,5.6
		C1372.4,854.8,1372.9,863.4,1371.5,868.6z"/>
	<g id="Group_1" transform="translate(93.519 63.223)">
		<path id="Path_2" class="st1" d="M697.3,840.8c-0.1-5.8-0.5-11.5-1.3-17.3c-0.7-2.2-1.3-4.5-1.7-6.7c-1.4-5.9-3.1-11.6-5.3-17.3
			c-2.3-6.3-4.4-12.3-4.8-13.3c-0.3-1-0.9-2-1.8-2.6c-1.6-1.6-3-3.4-3.9-5.4c-1.3-2.3-3.1-5.6-4.1-6.9c-9.9-14.6-13-19.3-14.1-20.4
			c-0.8-1-3.9-4.4-7.1-8.1c-10.3-12-22.4-22.2-35.8-30.4c-19.9-12.7-45.9-23.2-62.2-25c-2.1-0.3-4.2-0.8-6.3-1.5
			c-6.6-2-30.8-3.1-42.8-2c-9,1.4-18,3.2-26.8,5.6c-6.2,1.4-12.3,3.1-18.3,5.3c-18.6,5.8-32.1,17.3-47,28.6
			c-15.6,11.7-28.7,26.5-38.5,43.4c-3.1,5.8-3,11.8-4.8,17.9c-1.7,5.1-3.8,10.2-5.3,15.6c-3.7,12.3-5.8,25.1-6.3,38
			c-0.3,6.9-0.1,13.7,0.7,20.6c2.4,12.3,5.7,24.4,9.9,36.2c5,13.8,12.9,26.5,23,37.2c4,4.6,8.2,9,12.7,13.2c1.3,0.8,5.8,3.8,9.9,6.7
			c7.6,5.1,14.8,10.2,22.2,15.8c7.9,6.3,18.8,7.9,28.5,11.2c8.5,3.3,17.2,6.1,26,8.4c11.9,2.7,24,4.3,36.2,4.9l0,0
			c5.3,0.3,10.5,0.5,16,1.2c1,0,8.7-1,16.6-2.1c7.6-1,15.1-2.4,22.5-4.3c9.5-2.8,18.8-6.4,27.6-10.9c1.8-1.2,8.4-5.3,14.5-8.9
			c15.8-10.8,30.3-23.4,43.1-37.7c9.4-12.6,17.2-26.4,23.2-41c2.2-6.6,3.8-13.4,4.8-20.2C697.4,859.4,697.7,850.1,697.3,840.8z
			 M607,877c-0.8,3.6-1.8,8.2-2.6,10.7c-4.4,8.7-10.9,16.3-18.9,21.9c-4.1,1.8-8.4,3.2-12.8,4.3c-7.5,2-15.3,2.5-23,1.5l0,0
			c-6.9-1.4-13.7-3.5-20.2-6.1c-4.1-1.7-11.8-6.7-24.3-16.6c-12.2-9.9-23.3-21.2-33.1-33.6c-3.9-5.3-8.4-11-9.5-13
			c-1.1-1.4-2-3-2.6-4.8c-0.7-2.3-1.6-4.5-2.8-6.6c-4.6-9.9-7-20.7-7.1-31.6c0-8.7,2.7-17.1,7.7-24.2c6.3-7.4,15-12.4,24.7-13.8
			c3.5-0.7,7.1-1.2,10.7-1.5c0.8,0.2,5.4,1,10.4,1.8c7.5,1.8,14.8,4.4,21.7,7.7c4.6,2,9.1,4.3,13.3,6.9c0.5,0.5,4.4,3.3,8.9,6.3
			c12.8,8.4,31.1,26.3,36.8,35.7c2.4,3.6,5.1,7,7.9,10.4c3.1,3.9,5.8,8,8.1,12.5c2.2,5.2,4.1,10.5,5.8,16
			C607.5,866.1,607.9,871.6,607,877L607,877z"/>
	</g>
	<g id="Group_2" transform="translate(0.349 59.298)">
		<path id="Path_3" class="st1" d="M407.6,741.6c-2-3.3-5.1-5.8-6.4-9.4c-0.2-0.7-0.5-1.3-0.8-2c-1.4-2.3-2.9-4.5-4.6-6.6
			c-0.9-1.1-1.7-2.4-2.1-3.8c-0.6-1.7-1.6-3.2-3-4.4c-0.5-0.5-1-1.1-1.5-1.7c-0.5-0.7-0.8-1.3-1.3-2c-0.3-0.6-0.8-1.2-1.3-1.7
			c-0.8-1-1.7-1.8-2.6-2.6c-0.8-0.6-1.6-1.2-2.3-2c-0.5-0.5-0.8-1-1.3-1.5c-1-1.3-2.5-2.3-3.6-3.6c-0.8-1-1.7-2.1-2.5-3.1
			c-1.1-1.4-2.3-2.7-3.6-3.9c-1-0.8-1.9-1.8-2.6-3c-2-3.1-4.2-6-6.7-8.7c-2.3-2.7-4.9-5.2-7.7-7.4c-2,3.6-4.5,6.9-7.2,9.9
			c-2.5,2.8-5.3,5.3-8.4,7.6c-1.4,0.8-2.7,1.9-3.8,3.1c-1.1,1.2-2.5,2-3.9,2.6c-0.8,0.3-1.6,0.5-2.5,0.7c-0.7,0.2-1.2,0-1.8,0.2
			c-0.4,0.1-0.8,0.3-1.2,0.5c-0.8,0.3-1.7,0.4-2.6,0.3c-0.6,0-1.2,0.1-1.8,0.3c-1,0.2-2.1,0.3-3.1,0.3c-2.5-0.2-4.9,0-7.2,0
			c-2.3,0-10-0.8-16.9-1.5c-12.7-1.5-26.6-4.1-39.8-2.8c-6.7,1.1-13.3,2.6-19.7,4.4c-9,2-17.5,5.6-25.2,10.7
			c-17.7,10.6-31.2,27-38,46.5c-4.9,11.6-7.7,24.1-8.2,36.7c-0.5,14.6,3.5,27.3,10.2,34c2.5,2.6,4.9,5.2,7.1,8.1
			c1.5,2.1,3.3,3.5,3.8,3.3c0.5-0.2,1,0.5,1,1.5c0,1,5.6,5.3,12.5,9.7c13,8.2,19.9,10.5,55.8,20.6c13.8,3.8,20.2,6.6,27,11.2
			c4.2,3,8.2,6.1,12,9.5c5.4,5.1,8.9,11.7,2.6,19.9c-4.8,6.3-13.5,7.4-20.2,6.6c-1.5-0.2-7.4-1.2-13.3-2.3
			c-4.1-0.4-8.1-1.5-11.8-3.3c-0.7-0.9-1.7-1.3-2.8-1.2c-2.3,0.5-24.8-14.1-24.8-16.3c0-2.6-6.1-7.1-7.4-9.4
			c-2.6-4.6-4.7-9.6-6.3-14.6c-3.3,0.2-9.5,3.9-12.8,5.4c-4.1,1.8-7.7,4.4-11.7,6.6c-7.2,4.1-14.2,8.5-20.9,13.3
			c-5.1,3.5-11.8,6.1-16,10.7c-1.2,1.3-1.7,2-2.8,3.3c1.2,1.3,1.8,2.1,3,3.5c3.8,5.3,7,11,9.7,16.9c0.6,1.2,1.3,2.3,2,3.5
			c4.5,6.5,8.1,13.5,10.7,20.9c0.1,1.6,0.8,3.2,1.8,4.4c1,0.7,8.1,26.6,9,34.4c0.5,3.1,1.2,5.8,2,5.6c0.8-0.2,1.3,0.8,1.3,2.3
			c0,2.1,0.7,2.5,2.6,1.5c14.8-7.2,19.9-9.2,27.6-10.7c5.1-0.8,12.3-1.8,16.3-2c3.9-0.2,9.9-0.7,13.5-0.8
			c10.4-0.8,16.3-1.2,17.8-0.2c2.3,1.2,30.9,4.4,38.5,4.6c6.9-0.1,13.9-0.7,20.7-1.8c6.3-0.8,12-0.3,18.3-2.3l-0.5-0.2
			c5.9-2,12-3,17.9-4.9c16.6-5.8,31.8-15.2,44.4-27.5c7.6-7.6,14-16.3,18.9-25.8c2.2-3.6,3.8-7.6,4.8-11.7c0-1,0.8-4.3,1.3-7.2
			c1.8-7.6,2-15.5,0.7-23.2c-1.3-6.6-3.6-12.7-5.3-18.9c-0.8-4.5-2.3-8.8-4.3-12.8c-7.9-11-20.1-18.4-30.1-27.8
			c-6.9-6.4-13.3-13-23.4-16.6c-12.2-4.1-25.5-5.9-38-9.5c-20.1-5.8-29.1-8.9-35.5-13c-3.2-1.9-6-4.5-8.2-7.4
			c-1-1.7-1.5-2.3-2.5-3.9c1-1.5,1.5-2.3,2.3-3.8c2-3.1,5.2-5.1,8.9-5.6c5-1.3,10.2-1.9,15.5-1.8c10,0,19.9,2.3,28.8,6.9
			c2.3,1.5,7.7,5.1,12.3,7.7c7.6,4.5,14.8,9.7,21.4,15.6c1.8,1.8,3.8,3.4,5.9,4.8c0.8,0.7,4.1-1.3,7.6-3.8c3.5-2.6,7.1-5.3,8.4-6.1
			c1-0.8,4.1-3.1,6.6-4.9c2.3-1.8,31.1-22.5,32.1-21.2c-3.3-4.9-7-9.6-11-14C413.5,749.8,410.4,745.8,407.6,741.6z"/>
		<path id="Path_4" class="st1" d="M1118.4,726.5c-1.9-5.4-3-11-3.3-16.8c0.1-3.2-0.1-6.4-0.7-9.5c-0.4-1.2-1.4-2.2-2.6-2.5
			c-3,0.3-5.8,1.1-8.6,2.3c-5.3,1.7-10.9,2.6-16.4,2.8c-3.6-0.1-7.3,0.3-10.9,1c-2.1,1-29.6-1-49.5-3c-6.9-0.7-10.5-1.2-17.4-1.8
			c-0.3,2-0.5,3-0.8,4.8c-1.9,8.5-4.4,17-7.4,25.2c-3,7.9-6.9,14.1-8.7,14.1c-1.8-0.2-9.5-20.2-11-28.8c-1.5-9.2-5.1-15.3-6.7-11.5
			c-0.5,1.7-8.6,1.5-10.2,1.7c-5.8,0.5-11.7,0.7-17.4,1.2c-13.8,0.8-27.7,0.5-41.4-0.8c-16.9-1.3-36-3-42.3-3.8
			c-26.1-3.9-29.4-3.8-33.2-2.3c-1.8,0.8-3.3,2-4.4,3.6c-0.8,2.3-1.4,4.8-1.7,7.2c-0.7,8.3-2.4,16.4-5.3,24.2
			c-1.3,4-2.8,7.9-4.6,11.7c-1,1.8-0.8,2.8,1.3,4.3c1.2,0.9,2.6,1.6,4.1,2c3.5,0,10.7,4.4,14.3,8.6c2.6,3.1,4.9,6.4,6.7,10
			c2.8,5.8,4.6,14.6,6.3,30.1c1.3,25.5,1,51-0.8,76.5c-1,10.5-1,21.1,0.2,31.6c1.2,7.7,6.1,18.9,13.3,30.8
			c3.1,4.3,6.7,8.2,10.7,11.7c8.8,7.9,18.4,14.8,28.8,20.6c7.9,4.4,16.1,8.1,24.7,11c11.4,3.4,23.1,5.9,34.9,7.7l0,0
			c5.3,1,10.6,1.6,16,1.7c10.7,1.5,41.3-0.2,47-2.5c3.7-0.9,7.5-1.5,11.3-2c3.5-0.8,6.9-2.5,10.2-3.3c8.5-2.5,16.9-5.6,25-9.2
			c14-6.3,25.2-17.5,31.6-31.4c2.3-5.8,3.8-12.2,6.1-17.8c1.8-3.3,2.8-7,3.1-10.7c0.8-11.2,0.7-22.7,0.5-33.9c0-6.7-0.5-13.7-1-20.6
			c-0.5-7.4,0.7-14.5-0.7-21.9c-1-8-1.2-16.1-0.7-24.2c0.3-25.5,0.7-31.2,3-37.3c1.9-4.4,4.2-8.5,7.1-12.3c2.4-2.9,5.6-5,9.2-6.1
			c6.2-1.3,7.9-5.8,3.9-10.4C1125.8,744.2,1122.5,737.8,1118.4,726.5z M972.7,790.8c0.3-11.2,3.2-22.1,8.6-31.9
			c2.8-3.3,6.2-5.9,10-7.9c1.7-2,0-6.6,3.1-3.3c1.3,1.3,4.1,2,4.9,2.8c2,1.7,4.1,3.2,6.4,4.4c8.8,4.9,15.2,13.2,17.9,22.9
			c1.5,5,2.3,10.1,2.5,15.3c0.2,3,0.2,5.9,0,8.9c-0.7,6.2-1.1,12.4-1.2,18.6c-1,20.6-3.5,43.6-5.8,51c-1.6,4.6-3.6,9.1-5.9,13.3
			c-2.6,5.1-5.1,9.7-10.4,11c-2.2,0.6-4.4,0.6-6.6,0.2c-27.6-5.1-25-38-24.5-58.7C972.5,822,971.2,806.4,972.7,790.8L972.7,790.8z"
			/>
	</g>
	<g id="Group_5" transform="translate(0.2 -0.026)">
		<g id="Group_3" transform="translate(0.149 59.323)">
			<path id="Path_5" class="st2" d="M407.6,741.6c-2-3.3-5.1-5.8-6.4-9.4c-0.2-0.7-0.5-1.3-0.8-2c-1.4-2.3-2.9-4.5-4.6-6.6
				c-0.9-1.1-1.7-2.4-2.1-3.8c-0.6-1.7-1.6-3.2-3-4.4c-0.5-0.5-1-1.1-1.5-1.7c-0.5-0.7-0.8-1.3-1.3-2c-0.3-0.6-0.8-1.2-1.3-1.7
				c-0.8-1-1.7-1.8-2.6-2.6c-0.8-0.6-1.6-1.2-2.3-2c-0.5-0.5-0.8-1-1.3-1.5c-1-1.3-2.5-2.3-3.6-3.6c-0.8-1-1.7-2.1-2.5-3.1
				c-1.1-1.4-2.3-2.7-3.6-3.9c-1-0.8-1.9-1.8-2.6-3c-2-3.1-4.2-6-6.7-8.7c-2.3-2.7-4.9-5.2-7.7-7.4c-2,3.6-4.5,6.9-7.2,9.9
				c-2.5,2.8-5.3,5.3-8.4,7.6c-1.4,0.8-2.7,1.9-3.8,3.1c-1.1,1.2-2.5,2-3.9,2.6c-0.8,0.3-1.6,0.5-2.5,0.7c-0.7,0.2-1.2,0-1.8,0.2
				c-0.4,0.1-0.8,0.3-1.2,0.5c-0.8,0.3-1.7,0.4-2.6,0.3c-0.6,0-1.2,0.1-1.8,0.3c-1,0.2-2.1,0.3-3.1,0.3c-2.5-0.2-4.9,0-7.2,0
				c-2.3,0-10-0.8-16.9-1.5c-12.7-1.5-26.6-4.1-39.8-2.8c-6.7,1.1-13.3,2.6-19.7,4.4c-9,2-17.5,5.6-25.2,10.7
				c-17.7,10.6-31.2,27-38,46.5c-4.9,11.6-7.7,24.1-8.2,36.7c-0.5,14.6,3.5,27.3,10.2,34c2.5,2.6,4.9,5.2,7.1,8.1
				c1.5,2.1,3.3,3.5,3.8,3.3c0.5-0.2,1,0.5,1,1.5s5.6,5.3,12.5,9.7c13,8.2,19.9,10.5,55.8,20.6c13.8,3.8,20.2,6.6,27,11.2
				c4.2,3,8.2,6.1,12,9.5c5.4,5.1,8.9,11.7,2.6,19.9c-4.8,6.3-13.5,7.4-20.2,6.6c-1.5-0.2-7.4-1.2-13.3-2.3
				c-4.1-0.4-8.1-1.5-11.8-3.3c-0.7-0.9-1.7-1.3-2.8-1.2c-2.3,0.5-24.8-14.1-24.8-16.3c0-2.6-6.1-7.1-7.4-9.4
				c-2.6-4.6-4.7-9.6-6.3-14.6c-3.3,0.2-9.5,3.9-12.8,5.4c-4.1,1.8-7.7,4.4-11.7,6.6c-7.2,4.1-14.2,8.5-20.9,13.3
				c-5.1,3.5-11.8,6.1-16,10.7c-1.2,1.3-1.7,2-2.8,3.3c1.2,1.3,1.8,2.1,3,3.5c3.8,5.3,7,11,9.7,16.9c0.6,1.2,1.3,2.3,2,3.5
				c4.5,6.5,8.1,13.5,10.7,20.9c0.1,1.6,0.8,3.2,1.8,4.4c1,0.7,8.1,26.6,9,34.4c0.5,3.1,1.2,5.8,2,5.6c0.8-0.2,1.3,0.8,1.3,2.3
				c0,2.1,0.7,2.5,2.6,1.5c14.8-7.2,19.9-9.2,27.6-10.7c5.1-0.8,12.3-1.8,16.3-2c3.9-0.2,9.9-0.7,13.5-0.8
				c10.4-0.8,16.3-1.2,17.8-0.2c2.3,1.2,30.9,4.4,38.5,4.6c6.9-0.1,13.9-0.7,20.7-1.8c6.3-0.8,12-0.3,18.3-2.3l-0.5-0.2
				c5.9-2,12-3,17.9-4.9c16.6-5.8,31.8-15.2,44.4-27.5c7.6-7.6,14-16.3,18.9-25.8c2.2-3.6,3.8-7.6,4.8-11.7c0-1,0.8-4.3,1.3-7.2
				c1.8-7.6,2-15.5,0.7-23.2c-1.3-6.6-3.6-12.7-5.3-18.9c-0.8-4.5-2.3-8.8-4.3-12.8c-7.9-11-20.1-18.4-30.1-27.8
				c-6.9-6.4-13.3-13-23.4-16.6c-12.2-4.1-25.5-5.9-38-9.5c-20.1-5.8-29.1-8.9-35.5-13c-3.2-1.9-6-4.5-8.2-7.4
				c-1-1.7-1.5-2.3-2.5-3.9c1-1.5,1.5-2.3,2.3-3.8c2-3.1,5.2-5.1,8.9-5.6c5-1.3,10.2-1.9,15.5-1.8c10,0,19.9,2.3,28.8,6.9
				c2.3,1.5,7.7,5.1,12.3,7.7c7.6,4.5,14.8,9.7,21.4,15.6c1.8,1.8,3.8,3.4,5.9,4.8c0.8,0.7,4.1-1.3,7.6-3.8c3.5-2.6,7.1-5.3,8.4-6.1
				c1-0.8,4.1-3.1,6.6-4.9c2.3-1.8,31.1-22.5,32.1-21.2c-3.3-4.9-7-9.6-11-14C413.5,749.8,410.4,745.8,407.6,741.6z M398.9,767.6
				c-1.8,3.3-6.7,4.3-9.9,6.1c-4,2.5-7.8,5.2-11.5,8.1c-2.1,1.5-3.1,2.1-5.3,3.6c-5.6-4.3-8.6-6.4-14.1-10.7
				c-11.7-8.6-25.1-14.8-39.3-18.1c-5.1-1-10.3-1.6-15.5-1.8c-7.2-0.8-18.1-1-25,4.1c-6,4.9-10,11.8-11.3,19.4
				c-0.8,5.1-0.2,15,6.6,15.6c1.5,0.2,2.8,1.2,2.8,2c0,1,6.1,4.4,13.8,7.9c7.7,3.5,15.1,6.6,16.6,7.2c23.1,8.3,45.6,18,67.4,29.1
				c4.6,2.7,9,5.7,13.2,9c3.4,3.1,6.4,6.7,8.7,10.7c7.4,13.2,10,18.3,11.5,22.9c2.9,10.5,2.7,21.6-0.5,32.1
				c-2.6,7.9-4.3,17.4-10.4,24.2c-3.5,4.4-7.3,8.5-11.3,12.3c-4.1,3.2-8.5,5.9-13.2,8.1c-3.5,1.7-12.3,5.6-20.1,8.7l0,0
				c-15.4,6.2-32,8.8-48.5,7.4c-11.8-1-25.3,1.5-36-2.5c-9-3.5-19.4-3.5-29.6-4.3c-2.6-0.5-11.8,1.5-21.7,3.9
				c-6.7,1.8-10.2,2.6-17.1,4.6c-0.8-1.8-1.3-2.8-2.3-4.6c-2.8-6.7-5.3-13.6-7.4-20.6c-2.2-4.3-4.6-8.5-7.2-12.5
				c-2.8-4.6-3.9-9.7-6.4-14.1c-0.8-1.7-6.1-8.1-4.4-10.5c4.4-7.4,21.1-14,28.8-16.6c1.7-0.5,2.5-0.8,4.1-1.3
				c2.5,2.5,3.8,3.6,6.4,6.1c10.6,10.4,23.8,17.9,38.2,21.7c5.4,1.8,11.8,3.6,14.1,4.3c13.9,3.5,28.6,1.9,41.4-4.4
				c7.6-3.9,15.5-12,16.4-19.7c1.7-12.7-6.7-23.8-16.3-30.4c-4-2.4-8.3-4.4-12.7-5.9c-5.2-2.1-10.2-4.4-15.1-7.1
				c-3.4-2-7.1-3.4-10.9-4.4c-2.6-0.6-5.2-1.5-7.7-2.5c-1.8-0.8-7.9-3.3-13.3-5.6c-5.2-2-10.3-4.4-15.1-7.2
				c-1.9-1.5-4.1-2.5-6.4-3.1c-1.8,0.3-21.2-13.5-27-19.3c-3.4-3.5-6-7.7-7.6-12.3c-1.5-6.1-2.5-12.4-2.8-18.8
				c-0.3-4.8-0.5-7.1-0.8-11.7c1.3-3.6,2-5.3,3.1-8.9c4.1-11.2,10.3-21.6,18.3-30.6c4.1-4,8.7-7.4,13.7-10.4
				c13.2-9.7,35-12.3,48.7-10.7c4.8,0.6,9.6,0.9,14.5,0.8c6.3-0.2,11.8,0.8,18.1,0.5c3.9-0.2,8.1-1,11.8-1.3c3.8-0.2,7.7-0.9,11.3-2
				c3.9-1.2,8.1-2.8,11.8-3.9c6.2-2.3,12-5.7,16.9-10.2c3.3,2.8,5.1,9.2,7.1,13.2c2,3.6,4.3,7,6.9,10.2c2.3,3.1,6.4,9,8.9,12.8
				c3.5,5.8,7.3,11.3,11.5,16.6C389.3,754.6,399.5,766.4,398.9,767.6z"/>
			<path id="Path_6" class="st2" d="M358.4,738.8c-2.7-2.2-5.2-4.6-7.4-7.2c-1.8-2-1.3-2.3-3.8-3c-2.7,0-5.5,0.2-8.2,0.5
				c-5.9,0-11.8-0.8-17.6-1c-12.7-0.3-25.5-2.6-38.3-1.3c-14.1,1.2-30.9-0.5-44.7,6.4c-6.8,3.7-13,8.3-18.6,13.7
				c-11.2,9.5-14.1,21.1-14.3,32.9c-0.2,16,7.9,25.5,16,37c3.7,5.3,8.6,9.6,14.3,12.7c5.6,4.4,11.7,8.2,18.1,11.3
				c2.8,0.9,5.4,2.4,7.7,4.3c0,1.8,14.3,4.8,16.4,5.6c4.1,1.3,7.7,3.5,11.8,4.8c11.4,3.5,22.5,8,33.2,13.3c5.3,3.1,10.1,7,14.1,11.7
				c2.4,2.8,4.1,6,5.1,9.5c1.8,6.7-0.5,21.9-4.1,27.3c-4.9,7.6-11.4,13.9-19.1,18.6c-5.5,3.4-11.6,5.5-17.9,6.4
				c-17.1,1.9-34.4,0.1-50.7-5.4c-4.4-1.4-8.7-3-12.8-4.9c-3.7-2-7.5-3.8-11.3-5.3c-4.8-1.7-9.2-4.4-13-7.7c-1.5-2-3.3-3.3-4.3-3.1
				c-2.4,1.3-4.5,3-6.3,5.1c-1.8,1.8-2.6,2.8-4.4,4.8c0.8,2.6,1.2,3.9,2,6.6c1.4,4.5,2.1,9.1,2.1,13.8c0,3,0.2,4.3,0.2,7.2
				c2.6-0.3,3.8-0.3,6.4-0.7c3.6-0.3,10-1,14.5-1.7c11.8-1.6,23.7-1.2,35.4,1.3c15.8,3.3,31.9,5.3,48,5.9l0,0c5.4,0,14.3-1.2,19.3-1
				c13-3,25.5-7.1,30.8-10.4c10.2-6.3,18.4-15.4,23.7-26.1c4.3-9.7,8.2-23.2,4.9-32.4c-4.6-14.8-14.6-27.3-28-35
				c-4-1.8-8.1-3.4-12.3-4.6c-5.5-2.1-10.8-4.7-15.8-7.7c-10.8-5.4-21.9-10.2-33.2-14.2c-6.7-2.3-12.8-5.4-19.3-7.9
				c-5.4-2-10.5-4.7-15.1-8.1c-4.4-3.4-8.1-7.4-11.2-12c-5.8-10-8.2-24.3,1.2-36.5c7.9-10.2,21.1-15.3,32.6-17.4
				c8.4-1.9,16.9-2.5,25.5-2c8.6,0.8,18.3,0.3,26.8,2.1c5.6,1.5,19.6,3.8,21.9,9.4c2.8-1.3,5.8-3.9,8.6-5.6
				C363.4,747.5,361.2,741.8,358.4,738.8z"/>
			<path id="Path_7" class="st2" d="M692.9,848.8c-2.2-4.4-4.9-8.6-8.1-12.5c-2.8-3.5-6.3-8.2-7.9-10.4c-5.8-9.4-24-27.1-36.8-35.7
				c-4.4-3-8.4-5.8-8.9-6.3c-4.3-2.6-8.7-4.9-13.3-6.9c-6.9-3.4-14.2-6-21.7-7.7c-4.9-0.8-9.7-1.7-10.4-1.8
				c-3.6,0.3-7.2,0.8-10.7,1.5c-9.6,1.5-18.4,6.4-24.7,13.8c-5,7.1-7.7,15.5-7.7,24.2c0.3,10.9,2.7,21.6,7.1,31.6
				c1.2,2.1,2.1,4.3,2.8,6.6c0.7,1.7,1.6,3.3,2.6,4.8c1.3,2,5.8,7.7,9.5,13c9.8,12.3,20.9,23.6,33.1,33.6
				c12.5,9.9,20.1,15,24.3,16.6c6.6,2.6,13.3,4.6,20.2,6.1l0,0c7.7,1,15.5,0.5,23-1.5c4.4-1,8.7-2.4,12.8-4.3
				c5.8-2.8,16.8-15.6,18.9-21.9c0.8-2.3,1.8-7.1,2.6-10.7c0.9-5.4,0.4-11-1.5-16.1C696.9,859.3,695.1,854,692.9,848.8z M676,893.1
				c-1.9,3.7-4.4,7-7.6,9.7l0,0c-4.3,2.8-17.6,4.6-20.7,2.5c-2.8-1.4-5.7-2.5-8.7-3.3c-5.3-2-10.4-4.6-15.1-7.7
				c-4.9-3.1-15-11-22.5-17.3c-7.8-6.3-14.8-13.4-20.9-21.4c-5.6-7.5-10.7-15.4-15.3-23.5c-3.1-5.1-5.6-19.9-3.8-21.1
				c0.9-0.6,1.4-1.6,1.3-2.6c0-3.9,4.8-11.2,9.2-13.8c7.6-4.6,12.8-5.3,22.7-2.6c5,1.3,10,3,14.8,5.1c6.5,3,12.6,6.7,18.3,11
				c0.5,0.7,1.3,1.1,2.1,1.3c1.7,0.7,3.3,1.7,4.8,2.8c2.1,1.5,4.8,3.8,6.3,4.8c1.7,1.2,7.2,6.6,13,12.3c6,6.2,11.4,12.9,16,20.2
				c2.3,3.6,4.2,7.5,5.8,11.5c0.2,1.3,0.8,2.5,1.7,3.5c1.7,2,1.8,3.6,2.3,14.1C680.1,883.7,678.8,888.8,676,893.1L676,893.1z"/>
			<path id="Path_8" class="st2" d="M1118.4,726.5c-1.9-5.4-3-11-3.3-16.8c0.1-3.2-0.1-6.4-0.7-9.5c-0.4-1.2-1.4-2.2-2.6-2.5
				c-3,0.3-5.8,1.1-8.6,2.3c-5.3,1.7-10.9,2.6-16.4,2.8c-3.6-0.1-7.3,0.3-10.9,1c-2.1,1-29.6-1-49.5-3c-6.9-0.7-10.5-1.2-17.4-1.8
				c-0.3,2-0.5,3-0.8,4.8c-1.9,8.5-4.4,17-7.4,25.2c-3,7.9-6.9,14.1-8.7,14.1c-1.8-0.2-9.5-20.2-11-28.8c-1.5-9.2-5.1-15.3-6.7-11.5
				c-0.5,1.7-8.6,1.5-10.2,1.7c-5.8,0.5-11.7,0.7-17.4,1.2c-13.8,0.8-27.7,0.5-41.4-0.8c-16.9-1.3-36-3-42.3-3.8
				c-26.1-3.9-29.4-3.8-33.2-2.3c-1.8,0.8-3.3,2-4.4,3.6c-0.8,2.3-1.4,4.8-1.7,7.2c-0.7,8.3-2.4,16.4-5.3,24.2
				c-1.3,4-2.8,7.9-4.6,11.7c-1,1.8-0.8,2.8,1.3,4.3c1.2,0.9,2.6,1.6,4.1,2c3.5,0,10.7,4.4,14.3,8.6c2.6,3.1,4.9,6.4,6.7,10
				c2.8,5.8,4.6,14.6,6.3,30.1c1.3,25.5,1,51-0.8,76.5c-1,10.5-1,21.1,0.2,31.6c1.2,7.7,6.1,18.9,13.3,30.8
				c3.1,4.3,6.7,8.2,10.7,11.7c8.8,7.9,18.4,14.8,28.8,20.6c7.9,4.4,16.1,8.1,24.7,11c11.4,3.4,23.1,5.9,34.9,7.7l0,0
				c5.3,1,10.6,1.6,16,1.7c10.7,1.5,41.3-0.2,47-2.5c3.7-0.9,7.5-1.5,11.3-2c3.5-0.8,6.9-2.5,10.2-3.3c8.5-2.5,16.9-5.6,25-9.2
				c14-6.3,25.2-17.5,31.6-31.4c2.3-5.8,3.8-12.2,6.1-17.8c1.8-3.3,2.8-7,3.1-10.7c0.8-11.2,0.7-22.7,0.5-33.9
				c0-6.7-0.5-13.7-1-20.6c-0.5-7.4,0.7-14.5-0.7-21.9c-1-8-1.2-16.1-0.7-24.2c0.3-25.5,0.7-31.2,3-37.3c1.9-4.4,4.2-8.5,7.1-12.3
				c2.4-2.9,5.6-5,9.2-6.1c6.2-1.3,7.9-5.8,3.9-10.4C1125.8,744.2,1122.5,737.8,1118.4,726.5z M972.7,790.8
				c0.3-11.2,3.2-22.1,8.6-31.9c2.8-3.3,6.2-5.9,10-7.9c1.7-2,0-6.6,3.1-3.3c1.3,1.3,4.1,2,4.9,2.8c2,1.7,4.1,3.2,6.4,4.4
				c8.8,4.9,15.2,13.2,17.9,22.9c1.5,5,2.3,10.1,2.5,15.3c0.2,3,0.2,5.9,0,8.9c-0.7,6.2-1.1,12.4-1.2,18.6c-1,20.6-3.5,43.6-5.8,51
				c-1.6,4.6-3.6,9.1-5.9,13.3c-2.6,5.1-5.1,9.7-10.4,11c-2.2,0.6-4.4,0.6-6.6,0.2c-27.6-5.1-25-38-24.5-58.7
				C972.5,822,971.2,806.4,972.7,790.8L972.7,790.8z M1103.9,756.6c-2.8,0.7-8.9,12.5-10,19.3c-0.4,2.6-0.9,5.1-1.7,7.6
				c-0.6,1.9-1,3.8-1.3,5.8c-0.8,10.4-0.6,20.9,0.7,31.2c0.5,4.3,0.5,8.9,1,13c1,7.6,0.5,15,1,22.4c0.5,8.1,0.2,16.1,0.2,24.3
				c0,13.7-0.2,20.6-0.2,34.2c-1.3,3.9-2.1,5.9-3.5,9.9c-1.2,3.8-2.7,7.6-4.4,11.2c-1.1,1.9-2.1,4-3,6.1
				c-2.5,6.1-16.3,16.9-29.8,23.5c-6,3-12.4,5.3-18.9,6.9c-4.8,1-12.8,2.1-18.1,2.6l0,0c-10.6,0.4-21.2-0.1-31.7-1.7
				c-18.6-1-24.2-1.8-32.6-4.4c-5.4-1.8-13.3-4.1-17.6-5.3c-4.8-1.4-9.3-3.3-13.7-5.8c-3.2-1.8-6.5-3.4-9.9-4.8
				c-3.7-1.5-7.3-3.4-10.7-5.6c-9.2-6.2-17.3-13.8-24.2-22.5c-2.6-3.5-4.7-7.2-6.4-11.2c-3.1-6.9-6.6-30.6-4.9-32.9
				c3-27.6,2.6-56.1,3-83.7c0.2-20.6-1-31.6-4.3-39.3c-3.2-4.3-7-8-11.3-11.2c-3.9-3-5.9-4.4-9.9-7.6c0.2-1.8,0.3-2.8,0.5-4.6
				c0.3-2.6,0.7-5.6,0.7-6.7v-2.1c13.7,0.7,20.6,1,34.2,1.8c18.3,1.4,36.7,1.8,55.1,1.2c11.5-0.5,22.5-1,24.5-1.3
				c3.6-0.5,3.6-0.5,8.9,10.2c0.7,1.8,1.8,3.5,3.1,4.9c0.8,0.5,0.8,1.2-0.5,1.7c-3.9,1.2-6.9,5.1-9.5,12.7c-1.8,5.5-2.8,11.3-3,17.1
				c-0.3,28.9,0.2,57.9,1.5,86.8c0.4,7.5,1.2,14.9,2.6,22.2c1.1,4.1,2.9,7.9,5.1,11.5c3,3.8,6.5,7.2,10.4,10c3,2.1,4.4,3.3,7.2,5.4
				c3.6,0.3,5.4,0.5,9.2,0.7c5,0.5,10.1,0.1,15-1.2c4.7-1.9,9.2-4.4,13.2-7.6c8.2-6.3,9.7-13.7,12.5-22.7c2.3-6.5,4.1-13.2,5.4-20.1
				c2.7-17.4,4.2-34.9,4.3-52.5c0.4-8.7,0-17.5-1.2-26.1c-2-13.5-4.3-22.2-6.4-22.4c-1.9-0.9-3.6-2.1-5.3-3.5
				c-2.1-1.8-4.5-3.2-7.1-4.1c-2.3-0.7-2.8-1.7-2.3-5.8c0.6-3.8,1.6-7.6,3-11.2c1-2.5,1.5-3.6,2.5-6.1c4.1,0.2,6.1,0.3,10.2,0.5
				c17.3,0.8,31.6,1.5,34.7,1.2c7.5-1.1,15.1-1.6,22.7-1.3c0.6,0.5,0.9,1.2,1,2c2.8,7.6,6.5,14.9,10.9,21.7c1,1,1.6,2.4,1.8,3.8
				C1105.9,755.6,1105,756.3,1103.9,756.6L1103.9,756.6z"/>
			<path id="Path_9" class="st2" d="M1405.1,750c-5.9-5.5-12.6-10-19.9-13.3c-18.1-8.1-29.8-6.9-46.2-3.9
				c-7.7,1.3-15.6,2.1-23.4,3.6c-8.7,1.5-17.3,2-25.7,3.8c-12.2,2.5-24.8,3-37.2,1.7c-5.9-0.7-23-3.1-21.9,4.3
				c0.7,1.8,1.3,3.6,1.8,5.4c0,2.5-0.2,4.9-0.5,7.4c0,5.4,0.8,10.9,1.2,16.3c0.3,7.6,2,15,2.5,22.4c0.7,9.7-1.7,18.4-0.8,28
				c0.8,10,0.2,19.9,0.3,29.4c0.5,17.9,0,32.6-0.2,33.2c-0.3,0.7-1,13.5-1.3,28.8c-0.3,11-0.5,16.6-0.8,27.8c1.3,1.3,2,1.8,3.5,3.1
				l0,0c1.5,1.3,3.1,2.5,4.8,3.6c0.8-0.1,1.5-0.4,2.1-0.8c1.5-1,28.6-0.8,33.6,0.5c1.5,0.3,2.1,0.5,3.6,0.8c0.3-2.6,0.5-3.8,0.7-6.4
				c0.4-4.3,0.3-8.7-0.3-13c-1.3-7.7-2.8-62.7-1.7-63.5c0.8-0.5,10.7-0.2,26.6,1.3c12,1.4,24.2,1.1,36.2-0.8
				c14.1-2.1,17.9-3.3,19.1-5.1c0.3-0.8,1.2-1.2,2-0.8c0.1,0,0.2,0.1,0.3,0.2c0.8,0.7,6.4-1,12.5-3.5c11.5-4.6,23.5-11.7,26.5-16
				c3.3-4.4,10.4-15.1,12.8-19.3c2.3-3.9,4.9-17.9,5.8-30.9c0.3-8.4-1.2-16.9-4.4-24.7C1413.1,763,1410.8,755.4,1405.1,750z
				 M1382.7,821.2c-3.8,10.9-11.8,18.8-21.2,25.3c-8.4,6.1-18.9,5.8-29.6,7.7c-10.8,1.6-21.7,2.2-32.6,2l0,0
				c-8.6-0.2-16.8-0.3-18.1-0.3c-1.3-0.2-2.4-0.7-3.5-1.5c-0.4-5.3-0.4-10.6-0.2-16c0.5-8.1,0.8-23.2,1-33.6
				c0.5-26.3,1.2-41.4,2.3-43.7c0.5-1.3,3.3-2.6,6.1-3.5c2.8-0.7,5.4-1.3,5.9-1.3c0.3,0,5.4-0.7,11.3-1.5c19.1-2.5,36-3.3,44.7-2.1
				c4.6,0.4,9.2,1.7,13.3,3.8C1385.8,770,1391.1,797.5,1382.7,821.2L1382.7,821.2z"/>
			<path id="Path_10" class="st2" d="M1368.1,787.8c-1.2-3.9-5.3-8.7-12.2-13.5c-4.7-2.3-9.8-3.9-15-4.6c-4.9-1-9.9-1.5-15-1.5
				c-10,1.3-21.4,0-30.6,3.6c-3.6,1.3-4.6,2.6-4.6,5.3c0.3,6.4-1,49.7-1.8,54.4c-0.5,3,0,4.9,1.2,5.6l0,0c7,1.8,14.3,2.6,21.5,2.5
				c1.5-0.5,8.7-1.2,15.8-1.8c6.5-0.4,12.9-1.5,19.3-3.1c4.1-1.4,8.1-3.3,11.8-5.6c6.3-4.9,10.8-11.8,12.8-19.6
				c1.2-5.4,0.8-13.8-0.7-16.1C1369.4,791.7,1368.5,789.8,1368.1,787.8z M1345.4,819.7c-8.8,3.5-18.4,4.7-27.8,3.6l0,0
				c-2.2-0.8-4.6-0.8-6.7,0.2c-1.5,1.2-2.6,0.7-4.1-1c-1.7-1.7-2.1-5.1-1.7-15.5c0.2-6.3,1.5-22.2,1.5-22.2c1.9-0.7,3.9-0.9,5.9-0.5
				c9.5,1.8,19.1-0.2,28.3,2.5C1360.2,792.6,1357.4,813.4,1345.4,819.7L1345.4,819.7z"/>
			<path id="Path_11" class="st2" d="M1452.9,768.6c-0.9-1.9-1.7-3.9-2.1-5.9c0-2.6-10.2-22.7-15-29.1c-9.7-13-25.2-28-40.1-34.9
				c-13.2-5.9-24.7-5.9-37.7-7.1c-12.5-0.7-25.1-0.1-37.5,1.7c-10.9,1-21.4,3.3-32.1,4.8c-9,1.3-17.3,5.3-26.8,6.4
				c-13.4,1.7-27,1.4-40.3-0.7c-6.4-1-13-2.1-19.4-3.6c-5.8-1-12.2-4.1-18.1-3.9c-0.2,3.9-0.7,7.7-1.5,11.5
				c-0.7,3.7-1.8,7.4-3.3,10.9c-3.3,9.4-6.3,18.8-9.7,28.5c-0.9,2.3-1.6,4.6-1.8,7.1c1.7,0.8,3.6,1.4,5.4,1.8
				c3.5,1.2,6.8,2.9,9.7,5.1c3.5,3,6.5,6.6,8.9,10.5c1.9,2.8,3.3,5.8,4.3,9c0.4,2.6,1,5.1,1.8,7.6c1.3,5.9,2.2,11.9,2.8,17.9
				c1.2,15.3,0.8,30.6,1,45.7c-0.2,19.6,1.2,40.5-3.1,59.2c-1,4.6-0.5,9.4-2.5,13.2c-2.3,4.1-5.1,7.1-13.6,12.7
				c-5.8,3.9-6.9,10.5-3.3,20.2c3.5,10.1,6.3,20.4,8.4,30.9l0,0c0.8,5.1,2.6,6.7,4.9,3c0.8-1.1,2.3-1.6,3.6-1.3
				c1.7,0.2,2.8,0,2.8-0.8c0-1.2,31.1-11.2,34-10.7c1.4,0.1,2.8,0,4.1-0.5c9.6-1.7,19.3-2.6,29.1-2.6c12.2-0.2,32.4,3,39.1,6.1
				c2.6,1.2,7.1,3,9.9,3.9c1.8,0.5,3.5,1.2,5.3,1.7c4-8.8,8.7-17.3,14-25.5c2.8-4.4,3.3-9.2,5.8-13.7c2.3-4.3,1.5-4.1-4.4-8.1
				c-3.2-2.7-6.9-4.9-10.9-6.3c-2.1-0.3-8.9-8.4-10.5-12.7c-1.3-3.3-1.2-4.9,2.1-9.7c1.7-2.9,4.3-5.3,7.4-6.7
				c9.5-3,16.8-2.5,27.1-2.3c10.9,0.3,21.1-1.8,31.6-3c12.7-1.7,23-3.3,33.1-9.7c15.5-10,27.3-24.7,33.7-41.9
				c3.9-10.9,6.3-22.2,7.4-33.7C1457.9,792.2,1456.6,776.1,1452.9,768.6z M1437.8,810.5c-0.2,1.3-1.5,6.7-2.6,12
				c-2.6,11.5-8.9,27.1-12.7,31.2c-2.2,2.3-4.1,4.9-5.6,7.7c-5.2,7.5-12.3,13.5-20.6,17.4c-8.7,4.3-20.7,2.6-30.8,4.1
				c-5.4,0.8-11,0.7-16.3,2c-5.4,1.5-11.3,0.8-16.8,2c-5.6,1-10.4,3.6-16,4.8c-6.7,1.3-17.3,1.8-20.1,8.4c-1.1,4.1-1.6,8.4-1.5,12.7
				c-0.2,3.8-1.5,7.2-2,10.9c2.5,3.6,3.6,5.4,6.1,9c2.6,4.1,5.9,7.8,9.7,10.9c1.8,0.9,3.3,2.2,4.4,3.8c0.2,2-0.3,4-1.5,5.6
				c-1.4,2.3-2.1,4.9-2.3,7.6c0.3,2.5-1.2,4.7-3.6,5.4c-2.7,1-5.6,0.9-8.2-0.3c-10.5-3.7-21.6-5.6-32.7-5.6
				c-6.4-0.2-13.8-0.3-16.1-0.7c-5.4-0.8-16.1,1-31.1,5.3l0,0c-5.9,1.7-10.9,2.8-11.3,3c-0.5,0.2-1.3-1.3-1.3-3.5
				c-0.3-6.1,0.2-8.6,2-9.7c2.6-1.5,11.5-16.8,14.1-24.3c2.9-11.8,4.1-24,3.8-36.2c-0.3-2.8-1-23.5-1.5-46.1
				c-0.5-22.4-1.7-46.4-2.6-53.3c-2.5-17.9-5.3-29.8-7.2-31.9c-0.9-0.9-1.5-2.1-1.8-3.3c-1.6-5.2-4.1-10.1-7.4-14.5
				c-2.3-1.8-1.8-8.1,1.5-15.3c1.2-2.8,1.8-4.1,3.1-6.7c5.3,0.8,7.7,1.3,13,2.1c9.9,2.1,20.1,2.7,30.3,2c5-0.5,10-0.7,15-0.7
				c11.6,0.2,23.2-1,34.5-3.6c3.6-0.9,7.2-1.6,10.9-2c2.7-0.3,5.3-0.9,7.9-1.8c6.2-1.8,12.4-3.2,18.8-4.1c7.5-1.4,15.2-1.8,22.9-1.2
				c21.9,2.1,47.4,14,58.2,26.8c2.6,3.1,4.4,5.6,3.9,5.6c-0.5-0.2,0.5,2.5,2.6,5.8c2.7,4.7,4.9,9.7,6.6,14.8
				c1.8,6,3.2,12.1,4.1,18.3C1438.7,793.4,1438.7,802,1437.8,810.5z"/>
			<path id="Path_12" class="st2" d="M1078.1,747.3c-1.3-1.5-20.9-2.6-22.9-1.5c-1,0.8-1.3,3.6-0.7,9.7c0.4,3.3,1.1,6.6,2,9.9
				c1,1.5,2,17.8,2.5,38.5c-0.3,24.5-2.5,49-6.7,73.2c-2.5,11-5.6,19.6-8.6,23.4c-4.3,5.4-17.6,16.1-20.1,16c-1-0.2-1.8,0.3-1.3,1
				c0.3,0.7-2.6,2.1-6.6,3.5c-6.5,1.8-13.3,2.1-19.9,1.2c-11.5-0.6-22.7-3.7-32.9-9.2c-2.8-1.3-5.3-3.1-7.6-5.3
				c-1-1.3-4.1-5.6-7.1-10c-3.8-5.4-6.2-11.8-6.9-18.4c-1.8-9.9-3-29.3-3.6-60.7c-0.2-7.2-0.5-13.3-0.5-13.3s-0.5-7.7-0.7-16.9
				c-0.5-9.4-0.8-19.3-1.3-22c-0.2-2.8-0.7-8.2-1-12.2c0-2.8-0.2-4.3-0.2-7.1c-5.8-0.2-8.6-0.3-14.3-0.5c-7.9-0.5-19.6-0.7-26.1-0.8
				h-11.8l-0.8,5.8c-0.6,6.2-0.7,12.5-0.5,18.8c0.2,7.1,0.5,29.9,0.8,51.1c0.5,25.8,0.8,52.3,5.8,77.8c1.7,6.6,4.5,12.9,8.2,18.6
				c0.8,0.9,1.5,2,1.8,3.1c3.6,4.1,7.4,7.9,11.5,11.5c5.4,5.1,11.4,9.7,17.8,13.7c9.4,4.1,19.2,7.2,29.3,9.2l0,0
				c9,2,18.1,2.9,27.3,2.5c7.9,0.5,15.9,0.5,23.8,0c4.8-0.2,9.6-1.1,14.1-2.8c5.6-2.3,11.8-3.1,17.1-5.9c5.8-3,11.2-6.7,16.3-10.9
				c5.2-4.8,9.8-10.2,13.7-16.1c5.4-9.1,9-19.2,10.7-29.6c2.9-44.9,3.2-89.9,1.2-134.9C1079.9,754,1079.3,750.5,1078.1,747.3z"/>
			<path id="Path_13" class="st2" d="M742.3,810.8c-5.4-11.5-12.1-22.3-20.1-32.2c-6.8-7.5-14.2-14.3-22.2-20.4
				c-3.7-2.7-7.6-5.1-11.7-7.2c-3.9-2-9.9-5.3-13.3-7.4c-2.4-1.7-5.1-3-7.9-3.8c-0.8,0-1.7-0.3-1.7-0.8c0-0.7-3.1-2-6.7-3.1
				c-4.2-1.4-8.3-3.1-12.3-4.9c-2.8-1.5-5.9-2.5-6.7-2c-1.5,0.4-3.1,0.2-4.4-0.5c-4.8-2.1-27.1-3.5-41-2.5
				c-7.1,0.5-14.2,1.4-21.2,2.8c-4.7,1.1-9.4,2.6-13.8,4.6c-13.3,6.2-25.5,14.5-36.3,24.3c-8.6,8.2-15.8,17.6-21.5,28
				c-5.8,12.9-9.9,26.6-12,40.6c-0.6,5.8-0.9,11.7-0.8,17.6c0.1,8,1.4,16,3.8,23.7c2.1,7.2,4.7,14.1,7.9,20.9
				c1.8,3.2,3.3,6.6,4.4,10c0.1,1.2,1,2.1,2.1,2.3c1,0.3,2.1,1,2.1,1.7c1.8,3.1,3.9,5.9,6.4,8.4c7.2,8.4,37.7,33.7,40.3,33.4
				c1-0.2,2.8,1.2,4.4,2.5c3.1,2.8,10.2,5.8,22.2,9.4c11.1,3.5,22.5,6.1,34.1,7.7l0,0c4.9,0.3,16.3,0.7,25.5,0.5
				c8.9-0.1,17.7-1.3,26.3-3.6c5.3-1.7,12.2-4.1,15.3-5.4c16.3-7.1,26.5-12.2,30.8-15.6c2.3-2,6.6-5.1,8.9-7.1
				c8.2-7.4,14.5-16.6,18.4-27c1.8-4.9,3.9-10.4,4.8-11.8c2.1-4.3,4.4-18.6,5.1-30.6c0.2-9.5-0.6-19-2.6-28.3
				C747.2,826.7,745.1,818.6,742.3,810.8z M718.6,880.1c-2.3,11.8-7.1,24.3-11.3,29.6c-3.5,4.2-7.3,8.1-11.5,11.7
				c-7.4,6.6-10.5,8.1-25,13l0,0c-5.8,2-25,2.8-34.7,1.8c-4.5-0.7-8.9-1.8-13.2-3.5c-12.5-4.8-36.8-20.2-49.7-31.1
				c-6.8-5.5-13.2-11.5-19.3-17.8c-3.6-4.1-5.9-9-9.5-13.2c-3.1-3.5-12.7-22.9-12.7-25.8c-0.5-2.4-1.5-4.8-2.8-6.9
				c-1.8-4.1-3.2-8.3-4.1-12.7c-0.8-6.7-1.1-13.4-0.7-20.1c0.7-10.4,1.3-13.5,5.1-20.6c7.7-13,19.1-23.4,32.7-29.8
				c3.9-1.8,5.9-2.6,9.9-4.3h11.5c6.6,0,13.1,0.4,19.6,1.3c5.7,1.2,11.2,2.9,16.6,4.9c11.3,4.7,22.1,10.4,32.4,17.1
				c5.8,3.9,11.2,8.2,16.4,12.8c4.9,4.3,10.2,7.2,14.1,12.3c4.1,5.4,8.7,10.5,13.7,15.1c7.1,7.5,12.8,16.2,16.8,25.7
				c2.4,6.4,4.2,13,5.3,19.7C719.7,866.4,719.8,873.3,718.6,880.1L718.6,880.1z"/>
			<path id="Path_14" class="st2" d="M789.2,827.4c-0.7-2.2-1.3-4.5-1.7-6.7c-1.4-5.9-3.1-11.6-5.3-17.3c-2.3-6.3-4.4-12.3-4.8-13.3
				c-0.3-1-0.9-2-1.8-2.6c-1.6-1.6-3-3.4-3.9-5.4c-1.3-2.3-3.1-5.6-4.1-6.9c-9.9-14.6-13-19.3-14.1-20.4c-0.8-1-3.9-4.4-7.1-8.1
				c-10.3-12-22.4-22.2-35.8-30.4c-19.9-12.7-45.9-23.2-62.2-25c-2.1-0.3-4.2-0.8-6.3-1.5c-6.6-2-30.8-3.1-42.8-2
				c-9,1.4-18,3.2-26.8,5.6c-6.2,1.4-12.3,3.1-18.3,5.3c-18.6,5.8-32.1,17.3-47,28.6c-15.6,11.7-28.7,26.5-38.5,43.4
				c-3.1,5.8-3,11.8-4.8,17.9c-1.7,5.1-3.8,10.2-5.3,15.6c-3.7,12.3-5.8,25.1-6.3,38c-0.3,6.9-0.1,13.7,0.7,20.6
				c2.4,12.3,5.7,24.4,9.9,36.2c5,13.8,12.9,26.5,23,37.2c4,4.6,8.2,9,12.7,13.2c1.3,0.8,5.8,3.8,9.9,6.7
				c7.6,5.1,14.8,10.2,22.2,15.8c7.9,6.3,18.8,7.9,28.5,11.2c8.5,3.3,17.2,6.1,26,8.4c11.9,2.7,24,4.3,36.2,4.9l0,0
				c5.3,0.3,10.5,0.5,16,1.2c1,0,8.7-1,16.6-2.1c7.6-1,15.1-2.4,22.5-4.3c9.5-2.8,18.8-6.4,27.6-10.9c1.8-1.2,8.4-5.3,14.5-8.9
				c15.8-10.8,30.3-23.4,43.1-37.7c9.4-12.6,17.2-26.4,23.2-41c2.2-6.6,3.8-13.4,4.8-20.2c1-9.2,1.3-18.4,0.8-27.6
				C790.1,835.8,789.3,827.8,789.2,827.4z M768.6,867.6c-2.3,13.3-8.7,33.6-11,36c-1,1.3-1.4,2.8-1.3,4.4c-0.2,2.3-0.9,4.6-2.1,6.6
				c-1,1.8-3,4.8-3.9,6.6c-3.9,6.3-8.6,12.1-14.1,17.1c-3,2.6-9.7,7.9-15.3,11.8c-17.6,11.7-37,20.4-57.4,25.8l0,0
				c-15.4,2.7-30.9,4-46.5,3.8c-5.8-0.4-11.6-1.5-17.3-3.1c-9.7-2.3-12.3-3.1-23.8-6.6c-8.8-2.5-17.4-5.8-25.7-9.9
				c-4.1-2.5-28.1-17.4-32.4-20.1c-7.9-5.8-15.3-12.2-22-19.3c-6.7-7.4-20.2-30.1-20.1-34.5c-0.1-2.9-0.7-5.8-2-8.4
				c-2.6-5.3-4.4-23.4-3.9-34.2c1.5-12.7,3.9-25.3,7.2-37.7c5.2-15.2,12.7-29.6,22.4-42.4c10-12.3,27.8-27.5,37.5-31.7
				c2.3-1,4.5-2.2,6.6-3.6c0.8-1,8.9-5.1,23-11.3c7.7-3,15.8-5,24-5.9c10.3-1.7,20.7-2.1,31.1-1.2c8.1,0.7,18.6,2,23,2.6
				c8.9,2.1,17.5,4.9,25.8,8.6c11.2,4.4,22.4,8.7,31.9,16.1c4.9,4.1,9.9,7.9,14.8,12.2c9.5,7.6,18.1,16.1,25.8,25.5
				c9.3,13.5,17.3,27.8,23.8,42.8c2.1,7.4,3.3,15,3.6,22.7C770.8,849.4,770.2,858.6,768.6,867.6L768.6,867.6z"/>
		</g>
		<g id="Group_4" transform="translate(0 0)">
			<g id="g40_00000055690794967140185310000014012306460304621449_">
				<path id="path16_00000165915788132667932360000013303527550688813477_" class="st3" d="M210.5,541.1h-4.8
					c0,23.4,0,46.7-0.2,70.2c-10-23-20.4-45.9-30.8-68.9c-0.2-0.5-0.3-0.8-0.5-1.3h-1.7c-9.5,0-15.5,0-25,0.2h-4.9v166.6h2.3
					c10,0,16.1-0.2,26.3,0h4.9v-73.4c10.9,24,21.5,47.9,32.2,71.9c0.2,0.5,0.3,0.8,0.5,1.3H238c0.3-55.8,0.5-111.4,0.5-166.9H236
					C225.8,541.1,220.7,541.1,210.5,541.1z"/>
				<path id="path18_00000052816235914191960830000005308340685043328394_" class="st3" d="M319.9,537.4c-10-0.2-19.8,3.4-27.3,10
					c-20.9,19.4-26.2,50.6-28.1,77.3v0.7c0.2,32.7,10.2,84.9,52.6,85c3.4,0,6.7-0.3,10-1c6.2-1.5,12-4.4,16.9-8.6
					c21.1-18.8,27-51.1,28.9-77.6v-0.7C373,590.1,362.2,537.9,319.9,537.4z M326.5,661.1c-1.9,1.9-4.5,3-7.2,3
					c-17.9-3-21.2-26.1-21.1-40.8v-0.7c-0.3-9.7,4.1-28.3,12.2-35.5c1.3-1.3,3-2.3,4.8-2.8c0.8-0.1,1.5-0.2,2.3-0.2
					c17.9,3,21.4,26.1,21.2,40.8v0.5C339.2,635.3,334.6,654,326.5,661.1z"/>
				<path id="path20_00000107588448655051846060000018379564137935074489_" class="st3" d="M467.9,540.4h-4.4
					c-0.2,23.7-0.3,47.2-0.5,70.9c-10.5-23-20.9-46.1-31.4-69.1c-0.3-0.5-0.5-1-0.7-1.5h-2c-10,0-14.8,0.2-24.5,0H400
					c-0.3,55.6-0.7,111.2-1,166.9h33.4c0.2-24.7,0.3-49.3,0.5-74c11,24.2,21.9,48.2,32.9,72.4c0.3,0.5,0.5,1.1,0.7,1.7h29.4
					c0.5-55.6,1-111.2,1.5-166.8h-3.1C483.4,540.4,478.5,540.2,467.9,540.4L467.9,540.4z"/>
				<path id="path22_00000000908726757211412310000013955967159782109313_" class="st3" d="M527.8,610h-4.3
					c-0.2,17.9-0.2,26.8-0.3,44.7c1,0,2.1,0,3.1-0.2c17.9,0,26.8-0.2,44.9-0.2h4.3c0.2-17.9,0.3-26.8,0.5-44.7h-3.1
					C554.4,609.8,545.7,610,527.8,610z"/>
				<path id="path24_00000160894838825996393550000002113579653136115613_" class="st3" d="M607.7,540.1h-4.1
					c-0.7,55.6-1.3,111.3-2,166.9h3.3c10.7,0,16-0.2,26.6-0.2h4.1c0.2-19.1,0.3-38.2,0.7-57.2h45.4c0.2-17.4,0.3-26,0.5-43.4h-3.5
					c-17.1,0-26,0-41.9,0.2c0.2-8.4,0.2-12.5,0.2-20.9h50.2c0.2-18.3,0.3-27.3,0.7-45.6h-3.6C658.7,540.1,633.2,540.1,607.7,540.1z"
					/>
				<path id="path26_00000107577815842424571990000009607484364144975548_" class="st3" d="M778.6,540.1h-3.8
					c-0.5,31.2-1,62.5-1.5,93.7c-0.2,13.5-3,23.2-8.1,27.5c-1.8,1.5-4.1,2.4-6.4,2.3c-8.9,0-13.8-11.7-13.7-31.2
					c0.5-30.8,1-61.7,1.3-92.4H712c-0.5,31.2-0.8,62.3-1.3,93.6c-1,30.9,6.6,77.3,47,76.5h1.3c40.5-2,47-45.4,48.8-77.3
					c0.5-30.9,1-61.8,1.5-92.8h-3.8C794.9,540.1,789.6,540.1,778.6,540.1L778.6,540.1z"/>
				<path id="path28_00000016795159509883897080000004902777266648015515_" class="st3" d="M933,540.2c-10.4,0-15.6,0-26.5-0.2h-3.6
					c-0.5,24-1,47.9-1.3,71.9c-10.4-23.2-20.7-46.5-31.2-69.7c-0.3-0.8-0.5-1.3-0.8-2.1h-31.4c-1,55.8-1.8,111.3-2.8,167.1h33.6
					c0.5-25,1-50,1.5-75c10.9,24.3,21.7,48.5,32.6,72.9c0.4,0.7,0.7,1.4,1,2.1h2.6c9.4,0.2,14.1,0,23.4,0.2c1.2,0,2.3,0,3.5,0.2
					c1-55.8,2.1-111.5,3.1-167.3L933,540.2z"/>
				<path id="path30_00000013907752170305417180000010952890794846669983_" class="st3" d="M1059.5,607.3c-17.6-0.2-26.3,0-43.9-0.2
					h-3.3c-0.3,15.6-0.5,23.5-0.8,39.1h4.1c6.1,0,9.7,0,14.6,0.2c-0.2,5.9-0.2,8.9-0.3,14.8c-3.1,3.3-7.5,5.1-12,4.9
					c-4-0.1-7.7-1.8-10.4-4.8c-9-8.7-11.2-26.5-10.9-36.3v-0.5c0-15.1,4.1-37.5,22.4-41.1c6.1-0.5,12.5,3.9,19.1,13.3
					c1.5,2.1,2.3,3.3,3.8,5.4c1.2-2.1,1.7-3.1,2.8-5.3c6.6-12.5,9.9-18.9,16.3-31.4c0.3-0.7,0.5-0.8,0.8-1.5c-0.4-0.5-0.7-1.1-1-1.7
					c-9-14.6-24-25.7-41.9-25.7c-42.8-1.8-55.4,54.8-56.6,86.4v0.7c0.7,26,5.6,58.6,26.1,76.6c6.6,5.4,14.7,8.8,23.2,9.7
					c1.7,0.2,3.3,0.2,4.9,0.2c16.6,0,36.3-12,44.9-26c0.2-0.2,0.2-0.3,0.3-0.7c0.5-25.7,1.2-51.1,1.7-76.8
					C1062.2,607.1,1060.8,607.3,1059.5,607.3z"/>
				<path id="path32_00000001659390849092880850000014283853698615200417_" class="st3" d="M1123.2,540.6h-29.6
					c-1.3,55.8-2.6,111.5-3.9,167.3h33.7c0.7,0,0.5-22.7,0.7-24c0.8-35,0-70.7,2.1-106.1c0.3-2.8,0.2-37.2,1.2-37.3
					C1127.6,540.7,1123.2,540.6,1123.2,540.6z"/>
				<path id="path34_00000091008525457350259800000014078083216937484452_" class="st3" d="M1246.5,660.9c0.5-18.8-4.3-31.7-15.5-40
					c8.4-7.9,13-19.4,13.3-35.2v-0.5c0.5-9.6-1.5-19.2-5.8-27.8c-5.7-10.8-17.1-17.3-29.3-16.8h-51.5c-1.3,55.8-2.8,111.5-4.1,167.3
					h4.4c16.3,0.2,32.6,0.2,48.8,0.2c23.8-1.9,41.6-22.7,39.7-46.5c0-0.1,0-0.2,0-0.2C1246.7,661.1,1246.7,661.1,1246.5,660.9z
					 M1211,593.4c-0.3,7.7-3.3,11.5-9.7,11.5h-12c0.2-8.7,0.3-13,0.5-21.7h14.1c1.7-0.1,3.4,0.4,4.8,1.5c1.9,2.3,2.8,5.4,2.3,8.4
					L1211,593.4z M1187.8,665.7c0.2-9.2,0.3-13.8,0.7-23c6.3,0,10,0,17.1,0.2c2-0.1,3.9,0.5,5.4,1.7c2,2.4,2.9,5.6,2.5,8.7v0.5
					c-0.2,4.4-1.5,12.2-10,12L1187.8,665.7z"/>
				<path id="path36_00000183248704832585634960000009446793762198585237_" class="st3" d="M1344.5,662.8h-40.1
					c1.1-40.6,2.3-81.1,3.5-121.7h-30.4c-0.9,0-1.9,0-2.8,0.2c-1.5,55.8-3.1,111.5-4.6,167.3h4.6c23.7,0,47.4,0.2,70.9,0.2h2.5
					c0.5-18.3,0.8-27.5,1.5-45.7C1347.5,662.8,1346.5,662.8,1344.5,662.8z"/>
				<path id="path38_00000170265997275706060160000017420298039805388213_" class="st3" d="M1455.4,663.9h-50.3
					c0.2-7.6,0.3-11.2,0.5-18.8h43.9c0.5-16.8,0.8-25.2,1.3-41.9h-4.9c-15.8,0.2-24.5,0-39.1,0c0.2-7.1,0.3-10.5,0.5-17.4
					c15.5,0,31.1,0,46.2,0.2h2.3c0.7-17.9,0.8-26.8,1.5-44.7h-4.9c-24.7-0.2-49.3-0.2-73.8,0h-2.5c-1.7,55.9-3.3,111.7-4.9,167.6
					h83.9C1455.9,690.7,1454.9,681.8,1455.4,663.9z"/>
			</g>
		</g>
	</g>
</g>
</svg>
