<?xml version="1.0" encoding="utf-8"?>
<!-- Generator: Adobe Illustrator 25.4.1, SVG Export Plug-In . SVG Version: 6.00 Build 0)  -->
<svg version="1.1" id="Layer_1" xmlns="http://www.w3.org/2000/svg" xmlns:xlink="http://www.w3.org/1999/xlink" x="0px" y="0px"
	 viewBox="0 0 1938.9 1938.9" style="enable-background:new 0 0 1938.9 1938.9;" xml:space="preserve">
<style type="text/css">
	.st0{fill:#EE3024;}
	.st1{fill:#FFFFFF;}
</style>
<rect class="st0" width="1944.2" height="1944.2"/>
<g>
	<path class="st1" d="M224.7,517.9h109c63.6,0,122.1,51.5,108.6,131.5c-10.3,62.7-64.6,112.8-139.5,112.8h-55.2l-16.8,97.3h-66
		L224.7,517.9z M280.4,577.8l-22,124.5h47.7c39.3,0,66-28.1,72.1-62.2c6.1-34.2-17.3-62.2-54.3-62.2H280.4z"/>
	<path class="st1" d="M671.6,859.5c-94.1,0-134.3-87-129.6-175.5h24.3c54.3,0,73.5-24.3,78.6-51.5c6.1-32.8-16.4-54.8-58.5-54.8H549
		l-49.6,281.7h-66l59.9-341.6h103.4c79.6,0,127.3,54.8,115.1,124.9c-7.5,43.1-39.8,82.8-100.6,93.6c10.3,39.3,37.4,60.8,71.6,60.8h8
		l-11.7,62.2H671.6z"/>
	<path class="st1" d="M735.2,672.3c15.4-90.3,93.1-159.1,187.2-159.1c105.3,0,175,89.8,157.7,191.9
		c-15.4,90.3-90.3,159.1-187.2,159.1C787.7,864.2,717.9,774.3,735.2,672.3z M1015.1,699c11.2-63.6-29.9-121.7-98.3-121.7
		c-60.8,0-106.2,44-116.5,101.1C789.1,742,830.2,800,898.6,800C959.4,800,1004.8,756.1,1015.1,699z"/>
	<path class="st1" d="M1145.6,859.5L1097,517.9h66l31.4,237.3l117.5-237.3h69.7l-172.2,341.6H1145.6z"/>
	<path class="st1" d="M1401.6,517.9h202.6l-10.8,61.8h-136.6l-13.6,77.2h136.6l-11.2,62.2H1432l-13.6,78.6h136.6l-10.8,61.8h-202.6
		L1401.6,517.9z"/>
	<path class="st1" d="M1601.4,713h173.1l-9.8,54.8h-173.1L1601.4,713z"/>
	<path class="st1" d="M224.7,1079.4h68.8l99.7,226l39.8-226h66L439,1421h-64.6l-103-233l-41.2,233h-66L224.7,1079.4z"/>
	<path class="st1" d="M649.6,1079.4h65.5l57.1,341.6h-66.4l-9.4-59.4h-131l-31.8,59.4h-69.3L649.6,1079.4z M598.6,1299.3H687
		l-20.1-128.2L598.6,1299.3z"/>
	<path class="st1" d="M857.8,1079.4h68.8l99.7,226l39.8-226h66l-59.9,341.6h-64.6l-103-233l-41.2,233h-66L857.8,1079.4z"/>
	<path class="st1" d="M1134.4,1229.2c15.4-85.6,89.8-154.4,186.7-154.4c73.5,0,122.6,40.2,148.8,93.6l-62.7,31.4
		c-14.5-36-42.1-61.3-90.3-61.3c-58,0-107.2,40.2-117.5,101.1c-11.2,64.1,28.1,121.7,98.3,121.7c37.4,0,65.5-16.4,90.3-51l57.6,35.6
		c-37.4,48.2-77.2,79.1-151.6,80C1180.3,1427.1,1115.7,1333.5,1134.4,1229.2z"/>
	<path class="st1" d="M1513.4,1079.4h202.6l-10.8,61.8h-136.6l-13.6,77.2h136.6l-11.2,62.2h-136.6l-13.6,78.6h136.6l-10.8,61.8
		h-202.6L1513.4,1079.4z"/>
</g>
</svg>
