<svg xmlns="http://www.w3.org/2000/svg" width="396" height="158.632" viewBox="0 0 396 158.632">
  <g id="Non-Fungible_Soup_Logo" transform="translate(-0.2 0.026)">
    <path id="Path_1" data-name="Path 1" d="M709.361,153.262a8.005,8.005,0,0,1-.644-1.784c0-.793-3.072-6.838-4.509-8.77-2.923-3.914-7.581-8.423-12.09-10.5-3.964-1.784-7.432-1.784-11.347-2.131a56.877,56.877,0,0,0-11.3.5c-3.27.3-6.441.991-9.662,1.437-2.725.4-5.2,1.586-8.077,1.932a43.476,43.476,0,0,1-12.14-.2c-1.933-.3-3.914-.644-5.847-1.09-1.734-.3-3.667-1.239-5.45-1.189a20.136,20.136,0,0,1-.446,3.468,16.445,16.445,0,0,1-.991,3.27c-.991,2.824-1.883,5.649-2.923,8.572a7.534,7.534,0,0,0-.545,2.131,8.341,8.341,0,0,0,1.635.545,10.409,10.409,0,0,1,2.923,1.536,14.543,14.543,0,0,1,2.676,3.171,9.9,9.9,0,0,1,1.288,2.725,13.537,13.537,0,0,0,.545,2.279,46.705,46.705,0,0,1,.842,5.4c.347,4.608.248,9.216.3,13.775-.05,5.9.347,12.189-.942,17.838-.3,1.387-.149,2.824-.743,3.964-.694,1.239-1.536,2.131-4.112,3.815-1.734,1.189-2.081,3.171-.991,6.095a66.684,66.684,0,0,1,2.527,9.315h0c.248,1.536.793,2.032,1.486.892a1.077,1.077,0,0,1,1.09-.4c.5.05.842,0,.842-.248,0-.347,9.365-3.369,10.257-3.221a2.9,2.9,0,0,0,1.239-.149,50.427,50.427,0,0,1,8.77-.793c3.667-.05,9.761.892,11.793,1.833.793.347,2.131.892,2.973,1.189.545.149,1.04.347,1.586.5a61.1,61.1,0,0,1,4.212-7.68c.842-1.338.991-2.775,1.734-4.113.694-1.288.446-1.239-1.338-2.428a10.248,10.248,0,0,0-3.27-1.883c-.644-.1-2.676-2.527-3.171-3.815-.4-.991-.347-1.486.644-2.923a5.2,5.2,0,0,1,2.23-2.032c2.874-.892,5.054-.743,8.176-.694,3.27.1,6.342-.545,9.513-.892,3.815-.5,6.937-.991,9.959-2.923a25.7,25.7,0,0,0,10.158-12.635,42.031,42.031,0,0,0,2.23-10.158C710.847,160.4,710.451,155.541,709.361,153.262ZM684.734,165.55a10.693,10.693,0,0,1-3.865,5.9,18.1,18.1,0,0,1-3.568,1.685,30.562,30.562,0,0,1-5.8.941,39.793,39.793,0,0,0-4.757.545,24.573,24.573,0,0,1-6.491-.743h0c-.3-.2-.5-.793-.347-1.685.2-1.437.644-14.468.545-16.4,0-.793.3-1.239,1.387-1.586,2.775-1.041,6.194-.644,9.216-1.09a24.4,24.4,0,0,1,4.509.446,13.376,13.376,0,0,1,4.509,1.387c2.131,1.387,3.369,2.874,3.667,4.063a5.544,5.544,0,0,0,.694,1.685C684.982,161.388,685.131,163.965,684.734,165.55Z" transform="translate(-314.401 -65.573)" fill="#f8eb6c"/>
    <g id="Group_1" data-name="Group 1" transform="translate(93.519 63.223)">
      <path id="Path_2" data-name="Path 2" d="M290.391,175.03a41.121,41.121,0,0,0-.4-5.2,14.64,14.64,0,0,1-.5-2.032,41.472,41.472,0,0,0-1.586-5.2c-.694-1.883-1.338-3.716-1.437-4.013a1.531,1.531,0,0,0-.545-.793,5.719,5.719,0,0,1-1.189-1.635c-.4-.694-.941-1.685-1.239-2.081-2.973-4.41-3.914-5.8-4.261-6.144-.248-.3-1.189-1.338-2.131-2.428a45.1,45.1,0,0,0-10.8-9.167c-6-3.815-13.824-6.986-18.73-7.531a9.893,9.893,0,0,1-1.883-.446c-1.982-.595-9.266-.941-12.883-.595a72.953,72.953,0,0,0-8.077,1.685,45.927,45.927,0,0,0-5.5,1.586c-5.6,1.734-9.662,5.2-14.171,8.622a43.557,43.557,0,0,0-11.595,13.081c-.941,1.734-.892,3.568-1.437,5.4-.5,1.536-1.14,3.072-1.586,4.707a44.21,44.21,0,0,0-1.883,11.446,42.038,42.038,0,0,0,.2,6.194,74.665,74.665,0,0,0,2.973,10.9,32.162,32.162,0,0,0,6.937,11.2,54.5,54.5,0,0,0,3.815,3.964c.4.248,1.734,1.14,2.973,2.031,2.279,1.536,4.459,3.072,6.689,4.757,2.378,1.883,5.649,2.378,8.572,3.369a65.678,65.678,0,0,0,7.829,2.527,64.906,64.906,0,0,0,10.9,1.486h0c1.586.1,3.171.149,4.806.347.3,0,2.626-.3,5-.644a60.1,60.1,0,0,0,6.788-1.288,49.908,49.908,0,0,0,8.324-3.27c.545-.347,2.527-1.586,4.36-2.676a71.333,71.333,0,0,0,12.982-11.347,57.569,57.569,0,0,0,6.986-12.338,36.583,36.583,0,0,0,1.437-6.095A55.333,55.333,0,0,0,290.391,175.03Zm-27.2,10.9c-.248,1.09-.545,2.477-.793,3.221a17.835,17.835,0,0,1-5.7,6.59,22.054,22.054,0,0,1-3.865,1.288,18.094,18.094,0,0,1-6.937.446h0a36.358,36.358,0,0,1-6.095-1.833c-1.239-.5-3.568-2.031-7.333-5a63.71,63.71,0,0,1-9.959-10.108c-1.189-1.586-2.527-3.32-2.874-3.914a4.782,4.782,0,0,1-.793-1.437A10.257,10.257,0,0,0,218,173.2a23.334,23.334,0,0,1-2.131-9.513A12.746,12.746,0,0,1,218.2,156.4a12.08,12.08,0,0,1,7.432-4.162,25.889,25.889,0,0,1,3.221-.446c.248.05,1.635.3,3.122.545a33,33,0,0,1,6.541,2.329,31.606,31.606,0,0,1,4.013,2.081c.149.149,1.338.991,2.676,1.883,3.865,2.527,9.365,7.928,11.1,10.752a37.719,37.719,0,0,0,2.378,3.122,20.124,20.124,0,0,1,2.428,3.766,46.82,46.82,0,0,1,1.734,4.806A10.688,10.688,0,0,1,263.189,185.93Z" transform="translate(-188.535 -127.621)" fill="#f8eb6c"/>
    </g>
    <g id="Group_2" data-name="Group 2" transform="translate(0.349 59.298)">
      <path id="Path_3" data-name="Path 3" d="M80.175,139.966c-.595-.991-1.536-1.734-1.932-2.824a3.031,3.031,0,0,0-.248-.595,17.823,17.823,0,0,0-1.387-1.982,3.742,3.742,0,0,1-.644-1.14,3.53,3.53,0,0,0-.892-1.338,4.467,4.467,0,0,1-.446-.5c-.149-.2-.248-.4-.4-.595a1.94,1.94,0,0,0-.4-.5,5.993,5.993,0,0,0-.793-.793,4,4,0,0,1-.694-.595c-.149-.149-.248-.3-.4-.446-.3-.4-.743-.694-1.09-1.09-.248-.3-.5-.644-.743-.941a12.4,12.4,0,0,0-1.09-1.189,3.419,3.419,0,0,1-.793-.892A20.654,20.654,0,0,0,66.2,121.93a16.525,16.525,0,0,0-2.329-2.23,16.4,16.4,0,0,1-2.18,2.973,15.922,15.922,0,0,1-2.527,2.279,4.131,4.131,0,0,0-1.14.941,3.34,3.34,0,0,1-1.189.793,4.128,4.128,0,0,1-.743.2c-.2.05-.347,0-.545.05a1.049,1.049,0,0,0-.347.149,2.183,2.183,0,0,1-.793.1,2.107,2.107,0,0,0-.545.1,6.07,6.07,0,0,1-.941.1c-.743-.05-1.486,0-2.18,0s-3.023-.248-5.1-.446c-3.815-.446-8.027-1.239-11.991-.842A53.667,53.667,0,0,0,27.7,127.43a22.755,22.755,0,0,0-7.581,3.221A26.477,26.477,0,0,0,8.676,144.673,31.843,31.843,0,0,0,6.2,155.722c-.149,4.41,1.041,8.225,3.072,10.257a28.714,28.714,0,0,1,2.131,2.428c.446.644.991,1.041,1.14.991s.3.149.3.446,1.685,1.586,3.766,2.923c3.914,2.477,6,3.171,16.8,6.194,4.162,1.14,6.095,1.982,8.126,3.369a43.432,43.432,0,0,1,3.617,2.874c1.635,1.536,2.676,3.518.793,6-1.437,1.883-4.063,2.23-6.095,1.982-.446-.05-2.23-.347-4.013-.694a10.6,10.6,0,0,1-3.568-.991.9.9,0,0,0-.842-.347c-.694.149-7.482-4.261-7.482-4.905,0-.793-1.833-2.131-2.23-2.824a23.162,23.162,0,0,1-1.883-4.41c-.991.05-2.874,1.189-3.865,1.635-1.239.545-2.329,1.338-3.518,1.982a67.9,67.9,0,0,0-6.293,4.013c-1.536,1.041-3.568,1.833-4.806,3.221-.347.4-.5.595-.842.991.347.4.545.644.892,1.041A29.315,29.315,0,0,1,4.315,197a11.134,11.134,0,0,0,.595,1.041,27.1,27.1,0,0,1,3.221,6.293,2.437,2.437,0,0,0,.545,1.338c.3.2,2.428,8.027,2.725,10.356.149.941.347,1.734.595,1.685s.4.248.4.694c0,.644.2.743.793.446,4.459-2.18,6-2.775,8.324-3.221,1.536-.248,3.716-.545,4.905-.595s2.973-.2,4.063-.248c3.122-.248,4.905-.347,5.351-.05.694.347,9.315,1.338,11.595,1.387a44.908,44.908,0,0,0,6.243-.545c1.883-.248,3.617-.1,5.5-.694l-.149-.05c1.784-.595,3.617-.892,5.4-1.486A36.369,36.369,0,0,0,77.8,205.074a31.71,31.71,0,0,0,5.7-7.779,12.142,12.142,0,0,0,1.437-3.518c0-.3.248-1.288.4-2.18a17.594,17.594,0,0,0,.2-6.986c-.4-1.982-1.09-3.815-1.586-5.7a14.782,14.782,0,0,0-1.288-3.865c-2.378-3.32-6.045-5.55-9.068-8.374-2.081-1.932-4.014-3.914-7.036-5-3.667-1.239-7.68-1.784-11.446-2.874-6.045-1.734-8.77-2.676-10.7-3.914a9.111,9.111,0,0,1-2.477-2.23c-.3-.5-.446-.694-.743-1.189.3-.446.446-.694.694-1.14a3.782,3.782,0,0,1,2.676-1.685,16.7,16.7,0,0,1,4.658-.545,18.79,18.79,0,0,1,8.671,2.081c.694.446,2.329,1.536,3.716,2.329a41.139,41.139,0,0,1,6.441,4.707,11.5,11.5,0,0,0,1.784,1.437c.248.2,1.239-.4,2.279-1.14,1.041-.793,2.131-1.586,2.527-1.833.3-.248,1.239-.941,1.982-1.486.694-.545,9.365-6.788,9.662-6.392a35.535,35.535,0,0,0-3.32-4.212A29.077,29.077,0,0,1,80.175,139.966Z" transform="translate(-0.5 -119.7)" fill="#f8eb6c"/>
      <path id="Path_4" data-name="Path 4" d="M499.887,142.566a17.132,17.132,0,0,1-.991-5.054,13.115,13.115,0,0,0-.2-2.874,1.082,1.082,0,0,0-.793-.743,8.222,8.222,0,0,0-2.577.694,18.459,18.459,0,0,1-4.955.842,14.5,14.5,0,0,0-3.27.3c-.644.3-8.919-.3-14.914-.892-2.081-.2-3.171-.347-5.252-.545-.1.595-.149.892-.248,1.437a58.158,58.158,0,0,1-2.23,7.581c-.892,2.378-2.081,4.261-2.626,4.261-.545-.05-2.874-6.095-3.32-8.671-.446-2.775-1.536-4.608-2.032-3.468-.149.5-2.577.446-3.072.5-1.734.149-3.518.2-5.252.347a80.851,80.851,0,0,1-12.486-.248c-5.1-.4-10.851-.892-12.734-1.14-7.878-1.189-8.869-1.14-10.009-.694a3.062,3.062,0,0,0-1.338,1.09,10.3,10.3,0,0,0-.5,2.18,27.606,27.606,0,0,1-1.586,7.284,26.813,26.813,0,0,1-1.387,3.518c-.3.545-.248.842.4,1.288a3.391,3.391,0,0,0,1.239.595c1.041,0,3.221,1.338,4.311,2.577a16.124,16.124,0,0,1,2.032,3.023c.842,1.734,1.387,4.41,1.883,9.068a188.076,188.076,0,0,1-.248,23.04,47.075,47.075,0,0,0,.05,9.513c.347,2.329,1.833,5.7,4.013,9.266a19.625,19.625,0,0,0,3.221,3.518,45.788,45.788,0,0,0,8.671,6.194,46.492,46.492,0,0,0,7.432,3.32,79.346,79.346,0,0,0,10.5,2.329h0a27.634,27.634,0,0,0,4.806.5c3.221.446,12.437-.05,14.171-.743a29.115,29.115,0,0,1,3.419-.595c1.04-.248,2.081-.743,3.072-.991a57.052,57.052,0,0,0,7.531-2.775,19.03,19.03,0,0,0,9.513-9.464c.694-1.734,1.14-3.667,1.833-5.351a8.32,8.32,0,0,0,.941-3.221c.248-3.369.2-6.838.149-10.207,0-2.032-.149-4.113-.3-6.194-.149-2.23.2-4.36-.2-6.59a39.783,39.783,0,0,1-.2-7.284c.1-7.68.2-9.414.892-11.248a17.8,17.8,0,0,1,2.131-3.716,5.914,5.914,0,0,1,2.775-1.833c1.883-.4,2.378-1.734,1.189-3.122C502.117,147.917,501.126,145.985,499.887,142.566Zm-43.9,19.374a21.4,21.4,0,0,1,2.577-9.613,10.037,10.037,0,0,1,3.023-2.378c.5-.595,0-1.982.941-.991.4.4,1.239.595,1.487.842a10.142,10.142,0,0,0,1.932,1.338,11.371,11.371,0,0,1,5.4,6.887,18.3,18.3,0,0,1,.743,4.608,20.447,20.447,0,0,1,0,2.676,48.141,48.141,0,0,0-.347,5.6c-.3,6.194-1.04,13.131-1.734,15.36a25.287,25.287,0,0,1-1.784,4.013c-.793,1.536-1.536,2.923-3.122,3.32a4.341,4.341,0,0,1-1.982.05c-8.324-1.536-7.532-11.446-7.383-17.689C455.937,171.354,455.541,166.647,455.986,161.939Z" transform="translate(-206.059 -126.858)" fill="#f8eb6c"/>
    </g>
    <g id="Group_5" data-name="Group 5" transform="translate(0.2 -0.026)">
      <g id="Group_3" data-name="Group 3" transform="translate(0.149 59.323)">
        <path id="Path_5" data-name="Path 5" d="M80.175,139.966c-.595-.991-1.536-1.734-1.932-2.824a3.031,3.031,0,0,0-.248-.595,17.823,17.823,0,0,0-1.387-1.982,3.742,3.742,0,0,1-.644-1.14,3.53,3.53,0,0,0-.892-1.338,4.467,4.467,0,0,1-.446-.5c-.149-.2-.248-.4-.4-.595a1.94,1.94,0,0,0-.4-.5,5.993,5.993,0,0,0-.793-.793,4,4,0,0,1-.694-.595c-.149-.149-.248-.3-.4-.446-.3-.4-.743-.694-1.09-1.09-.248-.3-.5-.644-.743-.941a12.4,12.4,0,0,0-1.09-1.189,3.419,3.419,0,0,1-.793-.892A20.654,20.654,0,0,0,66.2,121.93a16.525,16.525,0,0,0-2.329-2.23,16.4,16.4,0,0,1-2.18,2.973,15.922,15.922,0,0,1-2.527,2.279,4.131,4.131,0,0,0-1.14.941,3.34,3.34,0,0,1-1.189.793,4.128,4.128,0,0,1-.743.2c-.2.05-.347,0-.545.05a1.049,1.049,0,0,0-.347.149,2.183,2.183,0,0,1-.793.1,2.107,2.107,0,0,0-.545.1,6.07,6.07,0,0,1-.941.1c-.743-.05-1.486,0-2.18,0s-3.023-.248-5.1-.446c-3.815-.446-8.027-1.239-11.991-.842A53.667,53.667,0,0,0,27.7,127.43a22.755,22.755,0,0,0-7.581,3.221A26.477,26.477,0,0,0,8.676,144.673,31.843,31.843,0,0,0,6.2,155.722c-.149,4.41,1.041,8.225,3.072,10.257a28.714,28.714,0,0,1,2.131,2.428c.446.644.991,1.041,1.14.991s.3.149.3.446,1.685,1.586,3.766,2.923c3.914,2.477,6,3.171,16.8,6.194,4.162,1.14,6.095,1.982,8.126,3.369a43.432,43.432,0,0,1,3.617,2.874c1.635,1.536,2.676,3.518.793,6-1.437,1.883-4.063,2.23-6.095,1.982-.446-.05-2.23-.347-4.013-.694a10.6,10.6,0,0,1-3.568-.991.9.9,0,0,0-.842-.347c-.694.149-7.482-4.261-7.482-4.905,0-.793-1.833-2.131-2.23-2.824a23.162,23.162,0,0,1-1.883-4.41c-.991.05-2.874,1.189-3.865,1.635-1.239.545-2.329,1.338-3.518,1.982a67.9,67.9,0,0,0-6.293,4.013c-1.536,1.041-3.568,1.833-4.806,3.221-.347.4-.5.595-.842.991.347.4.545.644.892,1.041A29.315,29.315,0,0,1,4.315,197a11.134,11.134,0,0,0,.595,1.041,27.1,27.1,0,0,1,3.221,6.293,2.437,2.437,0,0,0,.545,1.338c.3.2,2.428,8.027,2.725,10.356.149.941.347,1.734.595,1.685s.4.248.4.694c0,.644.2.743.793.446,4.459-2.18,6-2.775,8.324-3.221,1.536-.248,3.716-.545,4.905-.595s2.973-.2,4.063-.248c3.122-.248,4.905-.347,5.351-.05.694.347,9.315,1.338,11.595,1.387a44.908,44.908,0,0,0,6.243-.545c1.883-.248,3.617-.1,5.5-.694l-.149-.05c1.784-.595,3.617-.892,5.4-1.486A36.369,36.369,0,0,0,77.8,205.074a31.71,31.71,0,0,0,5.7-7.779,12.142,12.142,0,0,0,1.437-3.518c0-.3.248-1.288.4-2.18a17.594,17.594,0,0,0,.2-6.986c-.4-1.982-1.09-3.815-1.586-5.7a14.782,14.782,0,0,0-1.288-3.865c-2.378-3.32-6.045-5.55-9.068-8.374-2.081-1.932-4.014-3.914-7.036-5-3.667-1.239-7.68-1.784-11.446-2.874-6.045-1.734-8.77-2.676-10.7-3.914a9.111,9.111,0,0,1-2.477-2.23c-.3-.5-.446-.694-.743-1.189.3-.446.446-.694.694-1.14a3.782,3.782,0,0,1,2.676-1.685,16.7,16.7,0,0,1,4.658-.545,18.79,18.79,0,0,1,8.671,2.081c.694.446,2.329,1.536,3.716,2.329a41.139,41.139,0,0,1,6.441,4.707,11.5,11.5,0,0,0,1.784,1.437c.248.2,1.239-.4,2.279-1.14,1.041-.793,2.131-1.586,2.527-1.833.3-.248,1.239-.941,1.982-1.486.694-.545,9.365-6.788,9.662-6.392a35.535,35.535,0,0,0-3.32-4.212A29.077,29.077,0,0,1,80.175,139.966Zm-2.626,7.829c-.545.991-2.032,1.288-2.973,1.833a36.813,36.813,0,0,0-3.468,2.428c-.644.446-.941.644-1.586,1.09-1.685-1.288-2.577-1.932-4.261-3.221a32.426,32.426,0,0,0-11.842-5.45,27.878,27.878,0,0,0-4.658-.545c-2.18-.248-5.45-.3-7.532,1.239a9.7,9.7,0,0,0-3.419,5.847c-.248,1.536-.05,4.509,1.982,4.707.446.05.842.347.842.595,0,.3,1.833,1.338,4.162,2.378s4.559,1.982,5,2.18a175.58,175.58,0,0,1,20.315,8.77,36.857,36.857,0,0,1,3.964,2.725,13.389,13.389,0,0,1,2.626,3.221c2.23,3.964,3.023,5.5,3.468,6.887a17.347,17.347,0,0,1-.149,9.662c-.793,2.378-1.288,5.252-3.122,7.284a34.528,34.528,0,0,1-3.419,3.716,21.2,21.2,0,0,1-3.964,2.428c-1.041.5-3.716,1.685-6.045,2.626h0a31.806,31.806,0,0,1-14.617,2.23c-3.568-.3-7.631.446-10.851-.743-2.725-1.041-5.847-1.041-8.919-1.288-.793-.149-3.568.446-6.541,1.189-2.032.545-3.072.793-5.153,1.387-.248-.545-.4-.842-.694-1.387a65.687,65.687,0,0,1-2.23-6.194,35.428,35.428,0,0,0-2.18-3.766c-.842-1.387-1.189-2.923-1.932-4.261-.248-.5-1.833-2.428-1.338-3.171,1.338-2.23,6.342-4.212,8.671-5,.5-.149.743-.248,1.239-.4.743.743,1.14,1.09,1.932,1.833a25.658,25.658,0,0,0,11.5,6.541c1.635.545,3.568,1.09,4.261,1.288a18.186,18.186,0,0,0,12.486-1.338c2.279-1.189,4.658-3.617,4.955-5.946.5-3.815-2.032-7.185-4.905-9.167a21.622,21.622,0,0,0-3.815-1.784,43.362,43.362,0,0,1-4.559-2.131,13.363,13.363,0,0,0-3.27-1.338,18.217,18.217,0,0,1-2.329-.743c-.545-.248-2.378-.991-4.013-1.685a33.312,33.312,0,0,1-4.559-2.18,5.1,5.1,0,0,0-1.932-.941c-.545.1-6.392-4.063-8.126-5.8a10.071,10.071,0,0,1-2.279-3.716,29.816,29.816,0,0,1-.842-5.649c-.1-1.437-.149-2.131-.248-3.518.4-1.09.595-1.586.941-2.676a29,29,0,0,1,5.5-9.216,23.056,23.056,0,0,1,4.113-3.122c3.964-2.923,10.554-3.716,14.667-3.221a34.551,34.551,0,0,0,4.36.248c1.883-.05,3.568.248,5.45.149,1.189-.05,2.428-.3,3.568-.4a14.586,14.586,0,0,0,3.419-.595c1.189-.347,2.428-.842,3.568-1.189a15.6,15.6,0,0,0,5.1-3.072c.991.842,1.536,2.775,2.131,3.964a24.108,24.108,0,0,0,2.081,3.072c.694.941,1.932,2.725,2.676,3.865a47.644,47.644,0,0,0,3.468,5C74.675,143.88,77.747,147.448,77.549,147.795Z" transform="translate(-0.5 -119.7)" fill="#191919"/>
        <path id="Path_6" data-name="Path 6" d="M82.312,155.094a15.51,15.51,0,0,1-2.23-2.18c-.545-.595-.4-.694-1.14-.892a20.164,20.164,0,0,0-2.477.149c-1.784,0-3.568-.248-5.3-.3-3.815-.1-7.68-.793-11.545-.4-4.261.347-9.315-.149-13.477,1.932a26.721,26.721,0,0,0-5.6,4.113c-3.369,2.874-4.261,6.342-4.311,9.91-.05,4.806,2.378,7.68,4.806,11.149a12.828,12.828,0,0,0,4.311,3.815,30.625,30.625,0,0,0,5.45,3.419,7.052,7.052,0,0,1,2.329,1.288c0,.545,4.311,1.437,4.955,1.685,1.239.4,2.329,1.041,3.568,1.437a65.915,65.915,0,0,1,10.009,4.014,16.327,16.327,0,0,1,4.261,3.518,7.262,7.262,0,0,1,1.536,2.874c.545,2.031-.149,6.59-1.239,8.225a17.7,17.7,0,0,1-5.748,5.6,14.009,14.009,0,0,1-5.4,1.932,35.157,35.157,0,0,1-15.261-1.635,35.735,35.735,0,0,1-3.865-1.486,28.114,28.114,0,0,0-3.419-1.586,12.038,12.038,0,0,1-3.914-2.329c-.446-.595-.991-.991-1.288-.941a7.028,7.028,0,0,0-1.883,1.536c-.545.545-.793.842-1.338,1.437.248.793.347,1.189.595,1.982a14.341,14.341,0,0,1,.644,4.162c0,.892.05,1.288.05,2.18.793-.1,1.14-.1,1.932-.2,1.09-.1,3.023-.3,4.36-.5a30.953,30.953,0,0,1,10.653.4A86.757,86.757,0,0,0,66.8,221.192h0c1.635,0,4.311-.347,5.8-.3,3.914-.892,7.68-2.131,9.266-3.122A19.414,19.414,0,0,0,89,209.9c1.288-2.923,2.477-6.986,1.486-9.761a18.568,18.568,0,0,0-8.423-10.554,25.869,25.869,0,0,0-3.716-1.387,28.267,28.267,0,0,1-4.757-2.329A85.509,85.509,0,0,0,63.582,181.6c-2.032-.694-3.865-1.635-5.8-2.378a20.02,20.02,0,0,1-4.559-2.428,15.17,15.17,0,0,1-3.369-3.617c-1.734-3.023-2.477-7.333.347-11,2.378-3.072,6.342-4.608,9.811-5.252a27.374,27.374,0,0,1,7.68-.595c2.577.248,5.5.1,8.077.644,1.685.446,5.9,1.14,6.59,2.824.842-.4,1.734-1.189,2.577-1.685C83.8,157.72,83.154,155.986,82.312,155.094Z" transform="translate(-17.451 -135.67)" fill="#191919"/>
        <path id="Path_7" data-name="Path 7" d="M288.739,200.871a21.067,21.067,0,0,0-2.428-3.766c-.842-1.041-1.883-2.477-2.378-3.122-1.734-2.824-7.234-8.176-11.1-10.752-1.338-.892-2.527-1.734-2.676-1.883a31.614,31.614,0,0,0-4.013-2.081,31.94,31.94,0,0,0-6.541-2.329c-1.486-.248-2.923-.5-3.122-.545a25.9,25.9,0,0,0-3.221.446A12.08,12.08,0,0,0,245.829,181a12.746,12.746,0,0,0-2.329,7.284,25.064,25.064,0,0,0,2.131,9.513,9.094,9.094,0,0,1,.842,1.982,6.366,6.366,0,0,0,.793,1.437c.4.595,1.734,2.329,2.874,3.914A65.855,65.855,0,0,0,260.1,215.24c3.766,2.973,6.045,4.509,7.333,5a40.155,40.155,0,0,0,6.095,1.833h0a18.047,18.047,0,0,0,6.937-.446,19.574,19.574,0,0,0,3.865-1.288c1.734-.842,5.054-4.707,5.7-6.59.248-.694.545-2.131.793-3.221a9.669,9.669,0,0,0-.446-4.856A35.86,35.86,0,0,0,288.739,200.871Zm-5.1,13.329a9.47,9.47,0,0,1-2.279,2.923h0c-1.288.842-5.3,1.387-6.243.743a15.781,15.781,0,0,0-2.626-.991,22.1,22.1,0,0,1-4.559-2.329c-1.486-.941-4.509-3.32-6.788-5.2a37.844,37.844,0,0,1-6.293-6.441,66.327,66.327,0,0,1-4.608-7.086c-.941-1.536-1.685-6-1.14-6.342a.844.844,0,0,0,.4-.793c0-1.189,1.437-3.369,2.775-4.162,2.279-1.387,3.865-1.586,6.838-.793a32.885,32.885,0,0,1,4.459,1.536,29.415,29.415,0,0,1,5.5,3.32,1.15,1.15,0,0,0,.644.4,6.329,6.329,0,0,1,1.437.842c.644.446,1.437,1.14,1.883,1.437.5.347,2.18,1.982,3.914,3.716a37.22,37.22,0,0,1,4.806,6.095,18.606,18.606,0,0,1,1.734,3.468,2.205,2.205,0,0,0,.5,1.041c.5.595.545,1.09.694,4.261A6.568,6.568,0,0,1,283.635,214.2Z" transform="translate(-123.095 -148.299)" fill="#191919"/>
        <path id="Path_8" data-name="Path 8" d="M499.887,142.566a17.132,17.132,0,0,1-.991-5.054,13.115,13.115,0,0,0-.2-2.874,1.082,1.082,0,0,0-.793-.743,8.222,8.222,0,0,0-2.577.694,18.459,18.459,0,0,1-4.955.842,14.5,14.5,0,0,0-3.27.3c-.644.3-8.919-.3-14.914-.892-2.081-.2-3.171-.347-5.252-.545-.1.595-.149.892-.248,1.437a58.158,58.158,0,0,1-2.23,7.581c-.892,2.378-2.081,4.261-2.626,4.261-.545-.05-2.874-6.095-3.32-8.671-.446-2.775-1.536-4.608-2.032-3.468-.149.5-2.577.446-3.072.5-1.734.149-3.518.2-5.252.347a80.851,80.851,0,0,1-12.486-.248c-5.1-.4-10.851-.892-12.734-1.14-7.878-1.189-8.869-1.14-10.009-.694a3.062,3.062,0,0,0-1.338,1.09,10.3,10.3,0,0,0-.5,2.18,27.606,27.606,0,0,1-1.586,7.284,26.813,26.813,0,0,1-1.387,3.518c-.3.545-.248.842.4,1.288a3.391,3.391,0,0,0,1.239.595c1.041,0,3.221,1.338,4.311,2.577a16.124,16.124,0,0,1,2.032,3.023c.842,1.734,1.387,4.41,1.883,9.068a188.076,188.076,0,0,1-.248,23.04,47.075,47.075,0,0,0,.05,9.513c.347,2.329,1.833,5.7,4.013,9.266a19.625,19.625,0,0,0,3.221,3.518,45.788,45.788,0,0,0,8.671,6.194,46.492,46.492,0,0,0,7.432,3.32,79.346,79.346,0,0,0,10.5,2.329h0a27.634,27.634,0,0,0,4.806.5c3.221.446,12.437-.05,14.171-.743a29.115,29.115,0,0,1,3.419-.595c1.04-.248,2.081-.743,3.072-.991a57.052,57.052,0,0,0,7.531-2.775,19.03,19.03,0,0,0,9.513-9.464c.694-1.734,1.14-3.667,1.833-5.351a8.32,8.32,0,0,0,.941-3.221c.248-3.369.2-6.838.149-10.207,0-2.032-.149-4.113-.3-6.194-.149-2.23.2-4.36-.2-6.59a39.783,39.783,0,0,1-.2-7.284c.1-7.68.2-9.414.892-11.248a17.8,17.8,0,0,1,2.131-3.716,5.914,5.914,0,0,1,2.775-1.833c1.883-.4,2.378-1.734,1.189-3.122C502.117,147.917,501.126,145.985,499.887,142.566Zm-43.9,19.374a21.4,21.4,0,0,1,2.577-9.613,10.037,10.037,0,0,1,3.023-2.378c.5-.595,0-1.982.941-.991.4.4,1.239.595,1.487.842a10.142,10.142,0,0,0,1.932,1.338,11.371,11.371,0,0,1,5.4,6.887,18.3,18.3,0,0,1,.743,4.608,20.447,20.447,0,0,1,0,2.676,48.141,48.141,0,0,0-.347,5.6c-.3,6.194-1.04,13.131-1.734,15.36a25.287,25.287,0,0,1-1.784,4.013c-.793,1.536-1.536,2.923-3.122,3.32a4.341,4.341,0,0,1-1.982.05c-8.324-1.536-7.532-11.446-7.383-17.689C455.937,171.354,455.541,166.647,455.986,161.939Zm39.54-10.306c-.842.2-2.676,3.766-3.022,5.8a16.837,16.837,0,0,1-.5,2.279,11.36,11.36,0,0,0-.4,1.734,47.1,47.1,0,0,0,.2,9.414c.149,1.288.149,2.676.3,3.914.3,2.279.149,4.509.3,6.739.149,2.428.049,4.856.049,7.333,0,4.113-.049,6.194-.049,10.306-.4,1.189-.644,1.784-1.041,2.973a21.937,21.937,0,0,1-1.338,3.369,12.6,12.6,0,0,0-.892,1.833c-.743,1.833-4.905,5.1-8.968,7.086a28.733,28.733,0,0,1-5.7,2.081c-1.437.3-3.865.644-5.45.793h0a51.08,51.08,0,0,1-9.563-.5c-5.6-.3-7.284-.545-9.811-1.338-1.635-.545-4.014-1.239-5.3-1.586a20.079,20.079,0,0,1-4.113-1.734,21.623,21.623,0,0,0-2.973-1.437,18.743,18.743,0,0,1-3.221-1.685,32.11,32.11,0,0,1-7.284-6.788,17.082,17.082,0,0,1-1.932-3.369c-.941-2.081-1.982-9.216-1.487-9.91.892-8.324.793-16.9.892-25.221.05-6.194-.3-9.513-1.288-11.842a16.482,16.482,0,0,0-3.419-3.369c-1.189-.892-1.784-1.338-2.973-2.279.05-.545.1-.842.149-1.387.1-.793.2-1.685.2-2.032v-.644c4.113.2,6.194.3,10.306.545a143.292,143.292,0,0,0,16.6.347c3.468-.149,6.788-.3,7.383-.4,1.09-.149,1.09-.149,2.676,3.072a4.808,4.808,0,0,0,.941,1.486c.248.149.248.347-.149.5-1.189.347-2.081,1.536-2.874,3.815a17.276,17.276,0,0,0-.892,5.153q-.149,13.081.446,26.162a47.578,47.578,0,0,0,.793,6.689,13.115,13.115,0,0,0,1.536,3.468,16.617,16.617,0,0,0,3.122,3.022c.892.644,1.338.991,2.18,1.635,1.09.1,1.635.149,2.775.2a12.523,12.523,0,0,0,4.509-.347,15.984,15.984,0,0,0,3.964-2.279c2.478-1.883,2.923-4.113,3.766-6.838a40.185,40.185,0,0,0,1.635-6.045,105.689,105.689,0,0,0,1.288-15.806,42.151,42.151,0,0,0-.347-7.878c-.595-4.063-1.288-6.689-1.932-6.739a8.374,8.374,0,0,1-1.586-1.041,7.035,7.035,0,0,0-2.131-1.239c-.694-.2-.842-.5-.694-1.734a16.253,16.253,0,0,1,.892-3.369c.3-.743.446-1.09.743-1.833,1.239.05,1.833.1,3.072.149,5.2.248,9.513.446,10.455.347a38.273,38.273,0,0,1,6.838-.4.978.978,0,0,1,.3.595,33.567,33.567,0,0,0,3.27,6.54,2.023,2.023,0,0,1,.545,1.14A1.473,1.473,0,0,1,495.527,151.633Z" transform="translate(-206.059 -126.858)" fill="#191919"/>
        <path id="Path_9" data-name="Path 9" d="M714.356,159.72a22.692,22.692,0,0,0-6-4.014c-5.45-2.428-8.968-2.081-13.923-1.189-2.329.4-4.707.644-7.036,1.09-2.626.446-5.2.595-7.73,1.14a36.427,36.427,0,0,1-11.2.5c-1.784-.2-6.937-.941-6.59,1.288a12.62,12.62,0,0,1,.545,1.635,16.839,16.839,0,0,1-.149,2.23c0,1.635.248,3.27.347,4.905.1,2.279.595,4.509.743,6.739.2,2.923-.5,5.55-.248,8.423.248,3.023.049,6,.1,8.869.149,5.4,0,9.811-.049,10.009-.1.2-.3,4.063-.4,8.671-.1,3.32-.149,5-.248,8.374.4.4.595.545,1.04.941h0a10.854,10.854,0,0,0,1.437,1.09,1.794,1.794,0,0,0,.644-.248c.446-.3,8.622-.248,10.108.149.446.1.644.149,1.09.248.1-.793.149-1.14.2-1.932a17.326,17.326,0,0,0-.1-3.914c-.4-2.329-.842-18.878-.5-19.126.248-.149,3.221-.05,8.027.4a39.7,39.7,0,0,0,10.9-.248c4.261-.644,5.4-.991,5.748-1.536a.466.466,0,0,1,.694-.2c.248.2,1.932-.3,3.766-1.041,3.468-1.387,7.086-3.518,7.977-4.806.991-1.338,3.122-4.559,3.865-5.8.694-1.189,1.487-5.4,1.734-9.315a18,18,0,0,0-1.338-7.432C716.784,163.634,716.09,161.355,714.356,159.72Zm-6.739,21.455c-1.14,3.27-3.568,5.649-6.392,7.631-2.527,1.833-5.7,1.734-8.919,2.329a58.006,58.006,0,0,1-9.811.595h0c-2.576-.05-5.054-.1-5.45-.1a2.29,2.29,0,0,1-1.041-.446,39.5,39.5,0,0,1-.049-4.806c.149-2.428.248-6.986.3-10.108.149-7.928.347-12.486.694-13.18.149-.4.991-.793,1.833-1.041.842-.2,1.635-.4,1.784-.4.1,0,1.635-.2,3.419-.446,5.748-.743,10.851-.991,13.477-.644a11.47,11.47,0,0,1,4.014,1.14C708.559,165.765,710.144,174.039,707.617,181.174Z" transform="translate(-334.164 -136.927)" fill="#191919"/>
        <path id="Path_10" data-name="Path 10" d="M720.975,182.674c-.347-1.189-1.586-2.626-3.667-4.063a14.65,14.65,0,0,0-4.509-1.387,24.05,24.05,0,0,0-4.509-.446c-3.023.4-6.441,0-9.216,1.09-1.09.4-1.387.793-1.387,1.586.1,1.932-.3,14.964-.545,16.4-.149.892,0,1.486.347,1.685h0a24.331,24.331,0,0,0,6.491.743c.446-.149,2.626-.347,4.757-.545a30.568,30.568,0,0,0,5.8-.941,18.1,18.1,0,0,0,3.568-1.685,10.872,10.872,0,0,0,3.865-5.9c.347-1.635.248-4.162-.2-4.856A4.451,4.451,0,0,1,720.975,182.674Zm-6.838,9.613a17.3,17.3,0,0,1-8.374,1.09h0a2.679,2.679,0,0,0-2.032.05c-.446.347-.793.2-1.239-.3-.5-.5-.644-1.536-.5-4.658.05-1.883.446-6.689.446-6.689a3.258,3.258,0,0,1,1.784-.149c2.874.545,5.748-.05,8.522.743C718.6,184.111,717.754,190.4,714.137,192.286Z" transform="translate(-351.931 -148.485)" fill="#191919"/>
        <path id="Path_11" data-name="Path 11" d="M709.361,153.262a8.005,8.005,0,0,1-.644-1.784c0-.793-3.072-6.838-4.509-8.77-2.923-3.914-7.581-8.423-12.09-10.5-3.964-1.784-7.432-1.784-11.347-2.131a56.877,56.877,0,0,0-11.3.5c-3.27.3-6.441.991-9.662,1.437-2.725.4-5.2,1.586-8.077,1.932a43.476,43.476,0,0,1-12.14-.2c-1.933-.3-3.914-.644-5.847-1.09-1.734-.3-3.667-1.239-5.45-1.189a20.136,20.136,0,0,1-.446,3.468,16.445,16.445,0,0,1-.991,3.27c-.991,2.824-1.883,5.649-2.923,8.572a7.534,7.534,0,0,0-.545,2.131,8.341,8.341,0,0,0,1.635.545,10.409,10.409,0,0,1,2.923,1.536,13.459,13.459,0,0,1,2.676,3.171,9.9,9.9,0,0,1,1.288,2.725,13.537,13.537,0,0,0,.545,2.279,46.705,46.705,0,0,1,.842,5.4c.347,4.608.248,9.216.3,13.775-.05,5.9.347,12.189-.942,17.838-.3,1.387-.149,2.824-.743,3.964-.694,1.239-1.536,2.131-4.112,3.815-1.734,1.189-2.081,3.171-.991,6.095a66.684,66.684,0,0,1,2.527,9.315h0c.248,1.536.793,2.032,1.486.892a1.077,1.077,0,0,1,1.09-.4c.5.05.842,0,.842-.248,0-.347,9.365-3.369,10.257-3.221a2.9,2.9,0,0,0,1.239-.149,50.427,50.427,0,0,1,8.77-.793c3.667-.05,9.761.892,11.793,1.833.793.347,2.131.892,2.973,1.189.545.149,1.04.347,1.586.5a61.1,61.1,0,0,1,4.212-7.68c.842-1.338.991-2.775,1.734-4.113.694-1.288.446-1.239-1.338-2.428a10.248,10.248,0,0,0-3.27-1.883c-.644-.1-2.676-2.527-3.171-3.815-.4-.991-.347-1.486.644-2.923a5.2,5.2,0,0,1,2.23-2.032c2.874-.892,5.054-.743,8.176-.694,3.27.1,6.342-.545,9.513-.892,3.815-.5,6.937-.991,9.959-2.923a25.7,25.7,0,0,0,10.158-12.635,42.031,42.031,0,0,0,2.23-10.158C710.847,160.4,710.451,155.541,709.361,153.262ZM704.8,165.9c-.049.4-.446,2.032-.793,3.617-.793,3.468-2.676,8.176-3.815,9.414a11.821,11.821,0,0,0-1.685,2.329,15.651,15.651,0,0,1-6.194,5.252c-2.626,1.288-6.243.793-9.266,1.239-1.635.248-3.32.2-4.905.595-1.635.446-3.419.248-5.054.595-1.685.3-3.122,1.09-4.806,1.437-2.031.4-5.2.545-6.045,2.527a13.878,13.878,0,0,0-.446,3.815c-.049,1.14-.446,2.18-.595,3.27.743,1.09,1.09,1.635,1.833,2.725a13.5,13.5,0,0,0,2.923,3.27,3.577,3.577,0,0,1,1.338,1.14,2.4,2.4,0,0,1-.446,1.685,5.055,5.055,0,0,0-.694,2.279,1.519,1.519,0,0,1-1.09,1.635,3.106,3.106,0,0,1-2.477-.1,29.433,29.433,0,0,0-9.86-1.685c-1.932-.05-4.162-.1-4.856-.2-1.635-.248-4.856.3-9.365,1.586h0c-1.784.5-3.27.842-3.419.892s-.4-.4-.4-1.041c-.1-1.833.049-2.577.594-2.923.793-.446,3.468-5.054,4.261-7.333a41.571,41.571,0,0,0,1.14-10.9c-.1-.842-.3-7.086-.446-13.874-.149-6.739-.5-13.973-.793-16.054-.743-5.4-1.586-8.968-2.18-9.613a2.222,2.222,0,0,1-.545-.991,13.974,13.974,0,0,0-2.23-4.36c-.694-.545-.545-2.428.446-4.608.347-.842.545-1.239.941-2.032,1.586.248,2.329.4,3.914.644a32.741,32.741,0,0,0,9.117.595,44.756,44.756,0,0,1,4.509-.2,42.174,42.174,0,0,0,10.405-1.09,24.618,24.618,0,0,1,3.27-.595,9.724,9.724,0,0,0,2.378-.545,44.012,44.012,0,0,1,5.649-1.239,25.039,25.039,0,0,1,6.887-.347c6.59.644,14.27,4.212,17.541,8.077.793.941,1.338,1.685,1.189,1.685-.149-.05.149.743.793,1.734a25.031,25.031,0,0,1,1.982,4.459,36.573,36.573,0,0,1,1.239,5.5A33.387,33.387,0,0,1,704.8,165.9Z" transform="translate(-314.749 -124.87)" fill="#191919"/>
        <path id="Path_12" data-name="Path 12" d="M508.39,163.5c-.4-.446-6.293-.793-6.887-.446-.3.248-.4,1.09-.2,2.923a20.625,20.625,0,0,0,.595,2.973c.3.446.595,5.351.743,11.595a137.19,137.19,0,0,1-2.032,22.049c-.743,3.32-1.685,5.9-2.577,7.036-1.288,1.635-5.3,4.856-6.045,4.806-.3-.05-.545.1-.4.3.1.2-.793.644-1.982,1.041a14.685,14.685,0,0,1-6,.347,23.454,23.454,0,0,1-9.91-2.775,8.8,8.8,0,0,1-2.279-1.586c-.3-.4-1.239-1.685-2.131-3.023a11.71,11.71,0,0,1-2.081-5.55c-.545-2.973-.892-8.82-1.09-18.284-.049-2.18-.149-4.014-.149-4.014s-.149-2.329-.2-5.1c-.149-2.824-.248-5.8-.4-6.64-.05-.842-.2-2.477-.3-3.667,0-.842-.05-1.288-.05-2.131-1.734-.05-2.577-.1-4.311-.149-2.378-.149-5.9-.2-7.878-.248h-3.568l-.248,1.734a44.935,44.935,0,0,0-.149,5.649c.05,2.131.149,9.018.248,15.41.149,7.779.248,15.757,1.734,23.437a19.4,19.4,0,0,0,2.478,5.6,2.407,2.407,0,0,1,.545.941,39.211,39.211,0,0,0,3.468,3.468,33.013,33.013,0,0,0,5.351,4.113,42.442,42.442,0,0,0,8.82,2.775h0a31.161,31.161,0,0,0,8.225.743,56.048,56.048,0,0,0,7.185,0,13.856,13.856,0,0,0,4.261-.842c1.685-.694,3.568-.941,5.153-1.784a28.175,28.175,0,0,0,4.905-3.27,25.171,25.171,0,0,0,4.113-4.856,25.658,25.658,0,0,0,3.221-8.919,370.508,370.508,0,0,0,.347-40.63A8.518,8.518,0,0,0,508.39,163.5Z" transform="translate(-226.702 -141.502)" fill="#191919"/>
        <path id="Path_13" data-name="Path 13" d="M286.955,176.565a48.1,48.1,0,0,0-6.045-9.712,50.49,50.49,0,0,0-6.689-6.144,31.2,31.2,0,0,0-3.518-2.18c-1.189-.595-2.973-1.586-4.013-2.23a7.574,7.574,0,0,0-2.378-1.14c-.248,0-.5-.1-.5-.248,0-.2-.941-.595-2.032-.941a36.288,36.288,0,0,1-3.716-1.486c-.842-.446-1.784-.743-2.032-.595a1.918,1.918,0,0,1-1.338-.149c-1.437-.644-8.176-1.041-12.338-.743a54.817,54.817,0,0,0-6.392.842,21.5,21.5,0,0,0-4.162,1.387,44.071,44.071,0,0,0-10.95,7.333,35.034,35.034,0,0,0-6.491,8.423,46.569,46.569,0,0,0-3.617,12.239,51.463,51.463,0,0,0-.248,5.3,25.691,25.691,0,0,0,1.14,7.135,44.5,44.5,0,0,0,2.378,6.293,17.314,17.314,0,0,1,1.338,3.023.777.777,0,0,0,.644.694c.3.1.644.3.644.5a12.7,12.7,0,0,0,1.932,2.527c2.18,2.527,11.347,10.158,12.14,10.059.3-.05.842.347,1.338.743.941.842,3.072,1.734,6.689,2.824A63.249,63.249,0,0,0,249,222.646h0c1.486.1,4.905.2,7.68.149a31.93,31.93,0,0,0,7.928-1.09c1.586-.5,3.667-1.239,4.608-1.635,4.905-2.131,7.977-3.667,9.266-4.707.694-.595,1.982-1.536,2.676-2.131a20.671,20.671,0,0,0,5.55-8.126c.545-1.486,1.189-3.122,1.437-3.568.644-1.288,1.338-5.6,1.536-9.216a36.065,36.065,0,0,0-.793-8.522A46.188,46.188,0,0,0,286.955,176.565Zm-7.135,20.86c-.694,3.568-2.131,7.333-3.419,8.919a28.016,28.016,0,0,1-3.468,3.518c-2.23,1.982-3.171,2.428-7.531,3.914h0c-1.734.595-7.531.842-10.455.545a18.83,18.83,0,0,1-3.964-1.041c-3.766-1.437-11.1-6.095-14.964-9.365a66.207,66.207,0,0,1-5.8-5.351c-1.09-1.239-1.784-2.725-2.874-3.964-.941-1.041-3.815-6.887-3.815-7.779a6.622,6.622,0,0,0-.842-2.081,18.156,18.156,0,0,1-1.239-3.815,32.846,32.846,0,0,1-.2-6.045c.2-3.122.4-4.063,1.536-6.194a22.511,22.511,0,0,1,9.86-8.968c1.189-.545,1.784-.793,2.973-1.288h3.468a39.891,39.891,0,0,1,5.9.4,33.578,33.578,0,0,1,5,1.486,61.225,61.225,0,0,1,9.761,5.153,48.867,48.867,0,0,1,4.955,3.865c1.486,1.288,3.072,2.18,4.261,3.716a39.283,39.283,0,0,0,4.113,4.559,25.81,25.81,0,0,1,5.054,7.73,29.751,29.751,0,0,1,1.586,5.946A16.118,16.118,0,0,1,279.82,197.425Z" transform="translate(-106.446 -135.439)" fill="#191919"/>
        <path id="Path_14" data-name="Path 14" d="M289.995,169.827a14.658,14.658,0,0,1-.5-2.032,41.48,41.48,0,0,0-1.586-5.2c-.694-1.883-1.338-3.716-1.437-4.013a1.53,1.53,0,0,0-.545-.793,5.718,5.718,0,0,1-1.189-1.635c-.4-.694-.941-1.685-1.239-2.081-2.973-4.41-3.914-5.8-4.261-6.144-.248-.3-1.189-1.338-2.131-2.428a45.1,45.1,0,0,0-10.8-9.167c-6-3.815-13.824-6.986-18.73-7.531a9.893,9.893,0,0,1-1.883-.446c-1.982-.595-9.266-.941-12.883-.595a72.951,72.951,0,0,0-8.077,1.685,45.924,45.924,0,0,0-5.5,1.586c-5.6,1.734-9.662,5.2-14.171,8.622a43.556,43.556,0,0,0-11.595,13.081c-.941,1.734-.892,3.568-1.437,5.4-.5,1.536-1.14,3.072-1.586,4.707a44.212,44.212,0,0,0-1.883,11.446,42.038,42.038,0,0,0,.2,6.194,74.666,74.666,0,0,0,2.973,10.9,32.163,32.163,0,0,0,6.937,11.2,54.509,54.509,0,0,0,3.815,3.964c.4.248,1.734,1.14,2.973,2.031,2.279,1.536,4.459,3.072,6.689,4.757,2.378,1.883,5.649,2.378,8.572,3.369a65.682,65.682,0,0,0,7.829,2.527,64.905,64.905,0,0,0,10.9,1.486h0c1.586.1,3.171.149,4.806.347.3,0,2.626-.3,5-.644a60.1,60.1,0,0,0,6.788-1.288,49.91,49.91,0,0,0,8.324-3.27c.545-.347,2.527-1.586,4.36-2.676a71.334,71.334,0,0,0,12.982-11.347,57.572,57.572,0,0,0,6.987-12.338,36.586,36.586,0,0,0,1.437-6.095,54.2,54.2,0,0,0,.248-8.324C290.292,172.354,290.044,169.926,289.995,169.827Zm-6.194,12.09c-.694,4.013-2.626,10.108-3.32,10.851a1.958,1.958,0,0,0-.4,1.338,4.444,4.444,0,0,1-.644,1.982c-.3.545-.892,1.437-1.189,1.982a23.509,23.509,0,0,1-4.261,5.153c-.892.793-2.923,2.378-4.608,3.568a58.8,58.8,0,0,1-17.293,7.779h0a73.4,73.4,0,0,1-14.022,1.14,25.854,25.854,0,0,1-5.2-.941c-2.923-.694-3.716-.941-7.185-1.982a45.388,45.388,0,0,1-7.73-2.973c-1.239-.743-8.473-5.252-9.761-6.045a51.8,51.8,0,0,1-6.64-5.8c-2.032-2.23-6.095-9.068-6.045-10.405a6.236,6.236,0,0,0-.595-2.527c-.793-1.586-1.338-7.036-1.189-10.306a80.245,80.245,0,0,1,2.18-11.347,46.1,46.1,0,0,1,6.739-12.784c3.023-3.716,8.374-8.275,11.3-9.563a12.973,12.973,0,0,0,1.982-1.09c.248-.3,2.676-1.536,6.937-3.419a28.713,28.713,0,0,1,7.234-1.784,37.592,37.592,0,0,1,9.365-.347c2.428.2,5.6.595,6.937.793a44.561,44.561,0,0,1,7.779,2.577c3.369,1.338,6.739,2.626,9.613,4.856,1.486,1.239,2.973,2.378,4.459,3.667a51.882,51.882,0,0,1,7.779,7.68,78.542,78.542,0,0,1,7.185,12.883,28.573,28.573,0,0,1,1.09,6.838A35,35,0,0,1,283.8,181.917Z" transform="translate(-95.365 -123.696)" fill="#191919"/>
      </g>
      <g id="Group_4" data-name="Group 4" transform="translate(0 0)">
        <g id="g40_00000055690794967140185310000014012306460304621449_">
          <path id="path16_00000165915788132667932360000013303527550688813477_" d="M20.614,2.5H19.177c0,7.036,0,14.072-.05,21.158C16.105,16.72,12.984,9.832,9.862,2.9c-.05-.149-.1-.248-.149-.4h-.5c-2.874,0-4.658,0-7.532.05H.2V52.742H.894c3.023,0,4.856-.05,7.928,0h1.486v-22.1C13.578,37.877,16.8,45.062,20.02,52.3c.05.149.1.248.149.4h8.721q.149-25.2.149-50.293h-.743C25.222,2.5,23.686,2.5,20.614,2.5Z" transform="translate(-0.2 -1.198)" fill="#d5202d"/>
          <path id="path18_00000052816235914191960830000005308340685043328394_" d="M90.9.4a12.085,12.085,0,0,0-8.225,3.023C76.38,9.268,74.795,18.682,74.2,26.709v.2c.05,9.86,3.072,25.567,15.856,25.617a14.89,14.89,0,0,0,3.023-.3,12.165,12.165,0,0,0,5.1-2.577c6.342-5.649,8.126-15.41,8.721-23.387v-.2C106.9,16.254,103.632.547,90.9.4ZM92.88,37.659a2.954,2.954,0,0,1-2.18.892c-5.4-.892-6.392-7.878-6.342-12.288v-.2c-.1-2.923,1.239-8.522,3.667-10.7a3.33,3.33,0,0,1,1.437-.842,3.047,3.047,0,0,1,.694-.05c5.4.892,6.441,7.878,6.392,12.288v.149C96.7,29.88,95.308,35.529,92.88,37.659Z" transform="translate(-37.533 -0.187)" fill="#d5202d"/>
          <path id="path20_00000107588448655051846060000018379564137935074489_" d="M176.761,2.181h-1.338c-.05,7.135-.1,14.221-.149,21.356C172.1,16.6,168.982,9.663,165.811,2.726a1.76,1.76,0,0,1-.2-.446h-.595c-3.023,0-4.459.05-7.383,0H156.3q-.149,25.122-.3,50.293h10.059q.074-11.149.149-22.3c3.32,7.284,6.59,14.518,9.91,21.8a2.071,2.071,0,0,1,.2.5h8.869q.223-25.122.446-50.243h-.941c-3.27-.149-4.757-.2-7.928-.149Z" transform="translate(-78.802 -1.078)" fill="#d5202d"/>
          <path id="path22_00000000908726757211412310000013955967159782109313_" d="M232.887,44.4H231.6c-.05,5.4-.05,8.077-.1,13.477a6,6,0,0,0,.941-.05c5.4,0,8.077-.05,13.527-.05h1.288c.05-5.4.1-8.077.149-13.477h-.941C240.914,44.35,238.288,44.4,232.887,44.4Z" transform="translate(-116.892 -22.337)" fill="#d5202d"/>
          <path id="path24_00000160894838825996393550000002113579653136115613_" d="M281.033,1.95h-1.239c-.2,16.748-.4,33.545-.595,50.293h.991c3.221,0,4.806-.05,8.027-.05h1.239c.05-5.748.1-11.5.2-17.243h13.676c.05-5.252.1-7.829.149-13.081h-1.041c-5.153,0-7.829,0-12.635.05.05-2.527.05-3.766.05-6.293h15.113c.05-5.5.1-8.225.2-13.725h-1.09C296.394,1.95,288.713,1.95,281.033,1.95Z" transform="translate(-140.957 -0.946)" fill="#d5202d"/>
          <path id="path26_00000107577815842424571990000009607484364144975548_" d="M365.939,1.95H364.8q-.223,14.122-.446,28.243c-.05,4.063-.892,6.986-2.428,8.275a2.817,2.817,0,0,1-1.932.694c-2.676,0-4.162-3.518-4.113-9.414.149-9.266.3-18.581.4-27.847H345.872c-.149,9.414-.248,18.779-.4,28.194-.3,9.315,1.982,23.288,14.171,23.04h.4c12.189-.595,14.171-13.676,14.716-23.288q.223-13.973.446-27.946h-1.14c-3.221.05-4.806.05-8.126.05Z" transform="translate(-174.381 -0.946)" fill="#d5202d"/>
          <path id="path28_00000016795159509883897080000004902777266648015515_" d="M450.732,2.05c-3.122,0-4.707,0-7.977-.05h-1.09c-.149,7.234-.3,14.419-.4,21.653-3.122-6.986-6.243-14.022-9.414-21.009-.1-.248-.149-.4-.248-.644h-9.464c-.3,16.8-.545,33.545-.842,50.342h10.108q.223-11.3.446-22.595c3.27,7.333,6.541,14.617,9.811,21.95a3.735,3.735,0,0,1,.3.644h.793c2.824.05,4.261,0,7.036.05a6.979,6.979,0,0,1,1.041.05c.3-16.8.644-33.594.941-50.392Z" transform="translate(-212.648 -0.996)" fill="#d5202d"/>
          <path id="path30_00000013907752170305417180000010952890794846669983_" d="M527.784,21.244c-5.3-.05-7.928,0-13.23-.05h-.991c-.1,4.707-.149,7.086-.248,11.793h1.239c1.833,0,2.923,0,4.41.05-.049,1.784-.049,2.676-.1,4.459a4.811,4.811,0,0,1-3.617,1.486,4.4,4.4,0,0,1-3.122-1.437c-2.725-2.626-3.369-7.977-3.27-10.95v-.149c0-4.559,1.239-11.3,6.739-12.387,1.833-.149,3.766,1.189,5.748,4.013.446.644.694.991,1.14,1.635.347-.644.5-.941.842-1.586,1.982-3.766,2.973-5.7,4.905-9.464.1-.2.149-.248.248-.446a2.614,2.614,0,0,1-.3-.5c-2.725-4.41-7.234-7.73-12.635-7.73C502.662-.558,498.847,16.487,498.5,26v.2c.2,7.829,1.685,17.64,7.878,23.09a13.171,13.171,0,0,0,6.986,2.923c.5.05.991.05,1.486.05,5,0,10.95-3.617,13.527-7.829.05-.05.05-.1.1-.2.149-7.73.347-15.41.5-23.14A8.658,8.658,0,0,1,527.784,21.244Z" transform="translate(-251.596 0.026)" fill="#d5202d"/>
          <path id="path32_00000001659390849092880850000014283853698615200417_" d="M586.008,2.25h-8.919q-.595,25.2-1.189,50.392h10.158c.2,0,.149-6.838.2-7.234.248-10.554,0-21.306.644-31.959.1-.842.049-11.2.347-11.248C587.346,2.3,586.008,2.25,586.008,2.25Z" transform="translate(-290.644 -1.097)" fill="#d5202d"/>
          <path id="path34_00000091008525457350259800000014078083216937484452_" d="M642.846,38.621c.149-5.649-1.288-9.563-4.658-12.04,2.527-2.378,3.914-5.847,4.013-10.6v-.149a16.88,16.88,0,0,0-1.734-8.374,9.531,9.531,0,0,0-8.82-5.054H616.139c-.4,16.8-.842,33.594-1.239,50.392h1.338c4.905.05,9.811.05,14.716.05A13.019,13.019,0,0,0,642.9,38.769C642.9,38.67,642.9,38.67,642.846,38.621Zm-10.7-20.365c-.1,2.329-.991,3.468-2.924,3.468H625.6c.05-2.626.1-3.914.149-6.541h4.261a2,2,0,0,1,1.437.446,3.227,3.227,0,0,1,.694,2.527Zm-6.987,21.8c.05-2.775.1-4.162.2-6.937,1.883,0,3.022,0,5.153.05a2.38,2.38,0,0,1,1.635.5,3.348,3.348,0,0,1,.743,2.626v.149c-.049,1.338-.446,3.667-3.022,3.617Z" transform="translate(-310.32 -1.198)" fill="#d5202d"/>
          <path id="path36_00000183248704832585634960000009446793762198585237_" d="M708.046,39.267h-12.09C696.3,27.028,696.649,14.839,697,2.6H687.83a4.808,4.808,0,0,0-.842.05c-.446,16.8-.941,33.594-1.387,50.392h1.387c7.135,0,14.27.05,21.356.05h.743c.149-5.5.248-8.275.446-13.775C708.938,39.267,708.641,39.267,708.046,39.267Z" transform="translate(-345.989 -1.299)" fill="#d5202d"/>
          <path id="path38_00000170265997275706060160000017420298039805388213_" d="M772.419,39.626H757.257c.05-2.279.1-3.369.149-5.649h13.23c.149-5.054.248-7.581.4-12.635h-1.486c-4.757.05-7.383,0-11.793,0,.049-2.131.1-3.171.148-5.252,4.658,0,9.365,0,13.923.05h.694c.2-5.4.248-8.077.446-13.477h-1.486c-7.432-.05-14.865-.05-22.248,0h-.743c-.5,16.847-.991,33.644-1.486,50.491h25.27C772.568,47.7,772.27,45.027,772.419,39.626Z" transform="translate(-376.965 -1.312)" fill="#d5202d"/>
        </g>
      </g>
    </g>
  </g>
</svg>
